<?xml version="1.0" encoding="UTF-8" standalone="no"?><svg xmlns="http://www.w3.org/2000/svg" xmlns:xlink="http://www.w3.org/1999/xlink" contentStyleType="text/css" height="1175px" preserveAspectRatio="none" style="width:2825px;height:1175px;background:#FFFFFF;" version="1.1" viewBox="0 0 2825 1175" width="2825px" zoomAndPan="magnify"><defs/><g><rect height="107.8418" style="stroke:#000000;stroke-width:1.5;fill:none;" width="807.5" x="10" y="98.4883"/><rect height="76.5313" style="stroke:#000000;stroke-width:1.5;fill:none;" width="787.5" x="20" y="122.7988"/><rect height="324.7266" style="stroke:#000000;stroke-width:1.5;fill:none;" width="2725" x="20" y="220.3301"/><rect height="202.8633" style="stroke:#000000;stroke-width:1.5;fill:none;" width="2090.5" x="20" y="559.0566"/><rect height="240.7949" style="stroke:#000000;stroke-width:1.5;fill:none;" width="2799" x="20" y="775.9199"/><rect height="150.8633" style="stroke:#000000;stroke-width:1.5;fill:none;" width="687.5" x="2121.5" y="858.8516"/><rect height="46.6211" style="stroke:#000000;stroke-width:1.5;fill:none;" width="1138" x="20" y="1030.7148"/><line style="stroke:#181818;stroke-width:0.5;fill:none;stroke-dasharray:5.0,5.0;" x1="51" x2="51" y1="81.4883" y2="1094.3359"/><line style="stroke:#181818;stroke-width:0.5;fill:none;stroke-dasharray:5.0,5.0;" x1="782.5" x2="782.5" y1="81.4883" y2="1094.3359"/><line style="stroke:#181818;stroke-width:0.5;fill:none;stroke-dasharray:5.0,5.0;" x1="960" x2="960" y1="81.4883" y2="1094.3359"/><line style="stroke:#181818;stroke-width:0.5;fill:none;stroke-dasharray:5.0,5.0;" x1="1078" x2="1078" y1="81.4883" y2="1094.3359"/><line style="stroke:#181818;stroke-width:0.5;fill:none;stroke-dasharray:5.0,5.0;" x1="1491.5" x2="1491.5" y1="81.4883" y2="1094.3359"/><line style="stroke:#181818;stroke-width:0.5;fill:none;stroke-dasharray:5.0,5.0;" x1="2105.5" x2="2105.5" y1="81.4883" y2="1094.3359"/><line style="stroke:#181818;stroke-width:0.5;fill:none;stroke-dasharray:5.0,5.0;" x1="2154.5" x2="2154.5" y1="81.4883" y2="1094.3359"/><line style="stroke:#181818;stroke-width:0.5;fill:none;stroke-dasharray:5.0,5.0;" x1="2470.5" x2="2470.5" y1="81.4883" y2="1094.3359"/><line style="stroke:#181818;stroke-width:0.5;fill:none;stroke-dasharray:5.0,5.0;" x1="2713" x2="2713" y1="81.4883" y2="1094.3359"/><line style="stroke:#181818;stroke-width:0.5;fill:none;stroke-dasharray:5.0,5.0;" x1="2779" x2="2779" y1="81.4883" y2="1094.3359"/><text fill="#000000" font-family="sans-serif" font-size="14" lengthAdjust="spacing" textLength="37" x="30" y="78.5352">Actor</text><ellipse cx="51.5" cy="13.5" fill="#E2E2F0" rx="8" ry="8" style="stroke:#181818;stroke-width:0.5;"/><path d="M51.5,21.5 L51.5,48.5 M38.5,29.5 L64.5,29.5 M51.5,48.5 L38.5,63.5 M51.5,48.5 L64.5,63.5 " fill="none" style="stroke:#181818;stroke-width:0.5;"/><text fill="#000000" font-family="sans-serif" font-size="14" lengthAdjust="spacing" textLength="37" x="30" y="1106.8711">Actor</text><ellipse cx="51.5" cy="1118.3242" fill="#E2E2F0" rx="8" ry="8" style="stroke:#181818;stroke-width:0.5;"/><path d="M51.5,1126.3242 L51.5,1153.3242 M38.5,1134.3242 L64.5,1134.3242 M51.5,1153.3242 L38.5,1168.3242 M51.5,1153.3242 L64.5,1168.3242 " fill="none" style="stroke:#181818;stroke-width:0.5;"/><rect fill="#E2E2F0" height="30.4883" rx="2.5" ry="2.5" style="stroke:#181818;stroke-width:0.5;" width="30" x="767.5" y="50"/><text fill="#000000" font-family="sans-serif" font-size="14" lengthAdjust="spacing" textLength="16" x="774.5" y="70.5352">sh</text><rect fill="#E2E2F0" height="30.4883" rx="2.5" ry="2.5" style="stroke:#181818;stroke-width:0.5;" width="30" x="767.5" y="1093.3359"/><text fill="#000000" font-family="sans-serif" font-size="14" lengthAdjust="spacing" textLength="16" x="774.5" y="1113.8711">sh</text><rect fill="#E2E2F0" height="30.4883" rx="2.5" ry="2.5" style="stroke:#181818;stroke-width:0.5;" width="77" x="922" y="50"/><text fill="#000000" font-family="sans-serif" font-size="14" lengthAdjust="spacing" textLength="63" x="929" y="70.5352">init/oosh</text><rect fill="#E2E2F0" height="30.4883" rx="2.5" ry="2.5" style="stroke:#181818;stroke-width:0.5;" width="77" x="922" y="1093.3359"/><text fill="#000000" font-family="sans-serif" font-size="14" lengthAdjust="spacing" textLength="63" x="929" y="1113.8711">init/oosh</text><rect fill="#E2E2F0" height="30.4883" rx="2.5" ry="2.5" style="stroke:#181818;stroke-width:0.5;" width="139" x="1009" y="50"/><text fill="#000000" font-family="sans-serif" font-size="14" lengthAdjust="spacing" textLength="125" x="1016" y="70.5352">init/deinstall.oosh</text><rect fill="#E2E2F0" height="30.4883" rx="2.5" ry="2.5" style="stroke:#181818;stroke-width:0.5;" width="139" x="1009" y="1093.3359"/><text fill="#000000" font-family="sans-serif" font-size="14" lengthAdjust="spacing" textLength="125" x="1016" y="1113.8711">init/deinstall.oosh</text><rect fill="#E2E2F0" height="30.4883" rx="2.5" ry="2.5" style="stroke:#181818;stroke-width:0.5;" width="46" x="1468.5" y="50"/><text fill="#000000" font-family="sans-serif" font-size="14" lengthAdjust="spacing" textLength="32" x="1475.5" y="70.5352">ossh</text><rect fill="#E2E2F0" height="30.4883" rx="2.5" ry="2.5" style="stroke:#181818;stroke-width:0.5;" width="46" x="1468.5" y="1093.3359"/><text fill="#000000" font-family="sans-serif" font-size="14" lengthAdjust="spacing" textLength="32" x="1475.5" y="1113.8711">ossh</text><rect fill="#E2E2F0" height="30.4883" rx="2.5" ry="2.5" style="stroke:#181818;stroke-width:0.5;" width="32" x="2089.5" y="50"/><text fill="#000000" font-family="sans-serif" font-size="14" lengthAdjust="spacing" textLength="18" x="2096.5" y="70.5352">oo</text><rect fill="#E2E2F0" height="30.4883" rx="2.5" ry="2.5" style="stroke:#181818;stroke-width:0.5;" width="32" x="2089.5" y="1093.3359"/><text fill="#000000" font-family="sans-serif" font-size="14" lengthAdjust="spacing" textLength="18" x="2096.5" y="1113.8711">oo</text><rect fill="#E2E2F0" height="30.4883" rx="2.5" ry="2.5" style="stroke:#181818;stroke-width:0.5;" width="47" x="2131.5" y="50"/><text fill="#000000" font-family="sans-serif" font-size="14" lengthAdjust="spacing" textLength="33" x="2138.5" y="70.5352">bash</text><rect fill="#E2E2F0" height="30.4883" rx="2.5" ry="2.5" style="stroke:#181818;stroke-width:0.5;" width="47" x="2131.5" y="1093.3359"/><text fill="#000000" font-family="sans-serif" font-size="14" lengthAdjust="spacing" textLength="33" x="2138.5" y="1113.8711">bash</text><rect fill="#E2E2F0" height="30.4883" rx="2.5" ry="2.5" style="stroke:#181818;stroke-width:0.5;" width="39" x="2451.5" y="50"/><text fill="#000000" font-family="sans-serif" font-size="14" lengthAdjust="spacing" textLength="25" x="2458.5" y="70.5352">this</text><rect fill="#E2E2F0" height="30.4883" rx="2.5" ry="2.5" style="stroke:#181818;stroke-width:0.5;" width="39" x="2451.5" y="1093.3359"/><text fill="#000000" font-family="sans-serif" font-size="14" lengthAdjust="spacing" textLength="25" x="2458.5" y="1113.8711">this</text><rect fill="#E2E2F0" height="30.4883" rx="2.5" ry="2.5" style="stroke:#181818;stroke-width:0.5;" width="44" x="2691" y="50"/><text fill="#000000" font-family="sans-serif" font-size="14" lengthAdjust="spacing" textLength="30" x="2698" y="70.5352">user</text><rect fill="#E2E2F0" height="30.4883" rx="2.5" ry="2.5" style="stroke:#181818;stroke-width:0.5;" width="44" x="2691" y="1093.3359"/><text fill="#000000" font-family="sans-serif" font-size="14" lengthAdjust="spacing" textLength="30" x="2698" y="1113.8711">user</text><rect fill="#E2E2F0" height="30.4883" rx="2.5" ry="2.5" style="stroke:#181818;stroke-width:0.5;" width="40" x="2759" y="50"/><text fill="#000000" font-family="sans-serif" font-size="14" lengthAdjust="spacing" textLength="26" x="2766" y="70.5352">exit</text><rect fill="#E2E2F0" height="30.4883" rx="2.5" ry="2.5" style="stroke:#181818;stroke-width:0.5;" width="40" x="2759" y="1093.3359"/><text fill="#000000" font-family="sans-serif" font-size="14" lengthAdjust="spacing" textLength="26" x="2766" y="1113.8711">exit</text><path d="M10,98.4883 L217,98.4883 L217,105.7988 L207,115.7988 L10,115.7988 L10,98.4883 " fill="#EEEEEE" style="stroke:#000000;stroke-width:1.5;"/><rect fill="none" height="107.8418" style="stroke:#000000;stroke-width:1.5;" width="807.5" x="10" y="98.4883"/><text fill="#000000" font-family="sans-serif" font-size="13" font-weight="bold" lengthAdjust="spacing" textLength="162" x="25" y="112.0566">Installation from GitHub</text><path d="M20,122.7988 L82,122.7988 L82,130.1094 L72,140.1094 L20,140.1094 L20,122.7988 " fill="#EEEEEE" style="stroke:#000000;stroke-width:1.5;"/><rect fill="none" height="76.5313" style="stroke:#000000;stroke-width:1.5;" width="787.5" x="20" y="122.7988"/><text fill="#000000" font-family="sans-serif" font-size="13" font-weight="bold" lengthAdjust="spacing" textLength="17" x="35" y="136.3672">alt</text><text fill="#000000" font-family="sans-serif" font-size="11" font-weight="bold" lengthAdjust="spacing" textLength="30" x="97" y="135.4336">[curl]</text><line style="stroke:#000000;stroke-width:1.0;stroke-dasharray:2.0,2.0;" x1="20" x2="807.5" y1="141.1094" y2="141.1094"/><text fill="#000000" font-family="sans-serif" font-size="11" font-weight="bold" lengthAdjust="spacing" textLength="34" x="25" y="151.7441">[wget]</text><polygon fill="#181818" points="770.5,172.375,780.5,176.375,770.5,180.375,774.5,176.375" style="stroke:#181818;stroke-width:1.0;"/><line style="stroke:#181818;stroke-width:1.0;" x1="51.5" x2="776.5" y1="176.375" y2="176.375"/><text fill="#000000" font-family="sans-serif" font-size="13" lengthAdjust="spacing" textLength="707" x="58.5" y="171.6328">env -i sh -c "$(wget -O- https://raw.githubusercontent.com/Cerulean-Circle-GmbH/once.sh/main/init/oosh)"</text><line style="stroke:#000000;stroke-width:1.0;stroke-dasharray:2.0,2.0;" x1="20" x2="807.5" y1="185.375" y2="185.375"/><text fill="#000000" font-family="sans-serif" font-size="11" font-weight="bold" lengthAdjust="spacing" textLength="36" x="25" y="196.0098">[fetch]</text><path d="M20,220.3301 L179,220.3301 L179,227.6406 L169,237.6406 L20,237.6406 L20,220.3301 " fill="#EEEEEE" style="stroke:#000000;stroke-width:1.5;"/><rect fill="none" height="324.7266" style="stroke:#000000;stroke-width:1.5;" width="2725" x="20" y="220.3301"/><text fill="#000000" font-family="sans-serif" font-size="13" font-weight="bold" lengthAdjust="spacing" textLength="114" x="35" y="233.8984">Local Installation</text><polygon fill="#181818" points="948.5,254.9512,958.5,258.9512,948.5,262.9512,952.5,258.9512" style="stroke:#181818;stroke-width:1.0;"/><line style="stroke:#181818;stroke-width:1.0;" x1="51.5" x2="954.5" y1="258.9512" y2="258.9512"/><text fill="#000000" font-family="sans-serif" font-size="13" lengthAdjust="spacing" textLength="59" x="58.5" y="254.209">init/oosh</text><polygon fill="#181818" points="793.5,284.2617,783.5,288.2617,793.5,292.2617,789.5,288.2617" style="stroke:#181818;stroke-width:1.0;"/><line style="stroke:#181818;stroke-width:1.0;" x1="787.5" x2="959.5" y1="288.2617" y2="288.2617"/><text fill="#000000" font-family="sans-serif" font-size="13" lengthAdjust="spacing" textLength="12" x="799.5" y="283.5195">1.</text><text fill="#000000" font-family="sans-serif" font-size="13" lengthAdjust="spacing" textLength="138" x="815.5" y="283.5195">!/bin/sh ### shebang</text><polygon fill="#181818" points="2143,313.5723,2153,317.5723,2143,321.5723,2147,317.5723" style="stroke:#181818;stroke-width:1.0;"/><line style="stroke:#181818;stroke-width:1.0;" x1="782.5" x2="2149" y1="317.5723" y2="317.5723"/><text fill="#000000" font-family="sans-serif" font-size="13" lengthAdjust="spacing" textLength="131" x="789.5" y="312.8301">bash this localInstall</text><polygon fill="#181818" points="2459,342.8828,2469,346.8828,2459,350.8828,2463,346.8828" style="stroke:#181818;stroke-width:1.0;"/><line style="stroke:#181818;stroke-width:1.0;" x1="2155" x2="2465" y1="346.8828" y2="346.8828"/><text fill="#000000" font-family="sans-serif" font-size="13" lengthAdjust="spacing" textLength="97" x="2162" y="342.1406">this localInstall</text><polygon fill="#181818" points="2166,372.1934,2156,376.1934,2166,380.1934,2162,376.1934" style="stroke:#181818;stroke-width:1.0;"/><line style="stroke:#181818;stroke-width:1.0;" x1="2160" x2="2470" y1="376.1934" y2="376.1934"/><text fill="#000000" font-family="sans-serif" font-size="13" lengthAdjust="spacing" textLength="12" x="2172" y="371.4512">1.</text><text fill="#000000" font-family="sans-serif" font-size="13" lengthAdjust="spacing" textLength="206" x="2188" y="371.4512">!/usr/bin/env bash ### shebang</text><polygon fill="#181818" points="2116.5,401.5039,2106.5,405.5039,2116.5,409.5039,2112.5,405.5039" style="stroke:#181818;stroke-width:1.0;"/><line style="stroke:#181818;stroke-width:1.0;" x1="2110.5" x2="2470" y1="405.5039" y2="405.5039"/><text fill="#000000" font-family="sans-serif" font-size="13" lengthAdjust="spacing" textLength="244" x="2122.5" y="400.7617">oo state # initializes the state machine</text><polygon fill="#181818" points="2701,446.125,2711,450.125,2701,454.125,2705,450.125" style="stroke:#181818;stroke-width:1.0;"/><line style="stroke:#181818;stroke-width:1.0;" x1="2471" x2="2707" y1="450.125" y2="450.125"/><text fill="#000000" font-family="sans-serif" font-size="13" lengthAdjust="spacing" textLength="90" x="2478" y="430.0723">user get home</text><text fill="#000000" font-family="sans-serif" font-size="13" lengthAdjust="spacing" textLength="214" x="2482" y="445.3828"># hack to make sure the pm is set</text><polygon fill="#181818" points="2166,475.4355,2156,479.4355,2166,483.4355,2162,479.4355" style="stroke:#181818;stroke-width:1.0;"/><line style="stroke:#181818;stroke-width:1.0;" x1="2160" x2="2470" y1="479.4355" y2="479.4355"/><text fill="#000000" font-family="sans-serif" font-size="13" lengthAdjust="spacing" textLength="99" x="2172" y="474.6934">starts new bash</text><line style="stroke:#181818;stroke-width:1.0;" x1="2155" x2="2197" y1="524.0566" y2="524.0566"/><line style="stroke:#181818;stroke-width:1.0;" x1="2197" x2="2197" y1="524.0566" y2="537.0566"/><line style="stroke:#181818;stroke-width:1.0;" x1="2156" x2="2197" y1="537.0566" y2="537.0566"/><polygon fill="#181818" points="2166,533.0566,2156,537.0566,2166,541.0566,2162,537.0566" style="stroke:#181818;stroke-width:1.0;"/><text fill="#000000" font-family="sans-serif" font-size="13" lengthAdjust="spacing" textLength="92" x="2162" y="504.0039">source .bashrc</text><text fill="#000000" font-family="sans-serif" font-size="13" lengthAdjust="spacing" textLength="204" x="2166" y="519.3145">[oosh sshConfig] has started &gt; |</text><path d="M20,559.0566 L195,559.0566 L195,566.3672 L185,576.3672 L20,576.3672 L20,559.0566 " fill="#EEEEEE" style="stroke:#000000;stroke-width:1.5;"/><rect fill="none" height="202.8633" style="stroke:#000000;stroke-width:1.5;" width="2090.5" x="20" y="559.0566"/><text fill="#000000" font-family="sans-serif" font-size="13" font-weight="bold" lengthAdjust="spacing" textLength="130" x="35" y="572.625">Remote Installation</text><polygon fill="#181818" points="1479.5,593.6777,1489.5,597.6777,1479.5,601.6777,1483.5,597.6777" style="stroke:#181818;stroke-width:1.0;"/><line style="stroke:#181818;stroke-width:1.0;" x1="51.5" x2="1485.5" y1="597.6777" y2="597.6777"/><text fill="#000000" font-family="sans-serif" font-size="13" lengthAdjust="spacing" textLength="205" x="58.5" y="592.9355">ossh install &lt;remoteSSHconfig&gt;</text><line style="stroke:#181818;stroke-width:1.0;" x1="1491.5" x2="1533.5" y1="626.9883" y2="626.9883"/><line style="stroke:#181818;stroke-width:1.0;" x1="1533.5" x2="1533.5" y1="626.9883" y2="639.9883"/><line style="stroke:#181818;stroke-width:1.0;" x1="1492.5" x2="1533.5" y1="639.9883" y2="639.9883"/><polygon fill="#181818" points="1502.5,635.9883,1492.5,639.9883,1502.5,643.9883,1498.5,639.9883" style="stroke:#181818;stroke-width:1.0;"/><text fill="#000000" font-family="sans-serif" font-size="13" lengthAdjust="spacing" textLength="113" x="1498.5" y="622.2461">private.push.oosh</text><polygon fill="#181818" points="971.5,665.2988,961.5,669.2988,971.5,673.2988,967.5,669.2988" style="stroke:#181818;stroke-width:1.0;"/><line style="stroke:#181818;stroke-width:1.0;" x1="965.5" x2="1490.5" y1="669.2988" y2="669.2988"/><text fill="#000000" font-family="sans-serif" font-size="13" lengthAdjust="spacing" textLength="507" x="977.5" y="664.5566">init/oosh mode ssh &lt;remoteSSHconfig&gt; &lt;localSSHconfig&gt; &lt;localOSSH_MODE&gt;</text><line style="stroke:#181818;stroke-width:1.0;" x1="1491.5" x2="1533.5" y1="698.6094" y2="698.6094"/><line style="stroke:#181818;stroke-width:1.0;" x1="1533.5" x2="1533.5" y1="698.6094" y2="711.6094"/><line style="stroke:#181818;stroke-width:1.0;" x1="1492.5" x2="1533.5" y1="711.6094" y2="711.6094"/><polygon fill="#181818" points="1502.5,707.6094,1492.5,711.6094,1502.5,715.6094,1498.5,711.6094" style="stroke:#181818;stroke-width:1.0;"/><text fill="#000000" font-family="sans-serif" font-size="13" lengthAdjust="spacing" textLength="600" x="1498.5" y="693.8672">ssh $sshConfigHost "bash /home/$user/oosh/ossh continue.local.install from $(ossh.get.url)"</text><line style="stroke:#181818;stroke-width:1.0;" x1="1491.5" x2="1533.5" y1="740.9199" y2="740.9199"/><line style="stroke:#181818;stroke-width:1.0;" x1="1533.5" x2="1533.5" y1="740.9199" y2="753.9199"/><line style="stroke:#181818;stroke-width:1.0;" x1="1492.5" x2="1533.5" y1="753.9199" y2="753.9199"/><polygon fill="#181818" points="1502.5,749.9199,1492.5,753.9199,1502.5,757.9199,1498.5,753.9199" style="stroke:#181818;stroke-width:1.0;"/><text fill="#000000" font-family="sans-serif" font-size="13" lengthAdjust="spacing" textLength="279" x="1498.5" y="736.1777">ossh.install.finish.local &lt;remoteSSHconfig&gt;</text><path d="M20,775.9199 L285,775.9199 L285,783.2305 L275,793.2305 L20,793.2305 L20,775.9199 " fill="#EEEEEE" style="stroke:#000000;stroke-width:1.5;"/><rect fill="none" height="240.7949" style="stroke:#000000;stroke-width:1.5;" width="2799" x="20" y="775.9199"/><text fill="#000000" font-family="sans-serif" font-size="13" font-weight="bold" lengthAdjust="spacing" textLength="220" x="35" y="789.4883">Reconfiguration and Exit of oosh</text><polygon fill="#181818" points="2767,810.541,2777,814.541,2767,818.541,2771,814.541" style="stroke:#181818;stroke-width:1.0;"/><line style="stroke:#181818;stroke-width:1.0;" x1="51.5" x2="2773" y1="814.541" y2="814.541"/><text fill="#000000" font-family="sans-serif" font-size="13" lengthAdjust="spacing" textLength="270" x="58.5" y="809.7988">exit $ERROR_CODE_RECONFIG(defualt is 7)</text><polygon fill="#181818" points="2482,839.8516,2472,843.8516,2482,847.8516,2478,843.8516" style="stroke:#181818;stroke-width:1.0;"/><line style="stroke:#181818;stroke-width:1.0;" x1="2476" x2="2778" y1="843.8516" y2="843.8516"/><text fill="#000000" font-family="sans-serif" font-size="13" lengthAdjust="spacing" textLength="69" x="2488" y="839.1094">this.restart</text><path d="M2121.5,858.8516 L2183.5,858.8516 L2183.5,866.1621 L2173.5,876.1621 L2121.5,876.1621 L2121.5,858.8516 " fill="#EEEEEE" style="stroke:#000000;stroke-width:1.5;"/><rect fill="none" height="150.8633" style="stroke:#000000;stroke-width:1.5;" width="687.5" x="2121.5" y="858.8516"/><text fill="#000000" font-family="sans-serif" font-size="13" font-weight="bold" lengthAdjust="spacing" textLength="17" x="2136.5" y="872.4199">alt</text><text fill="#000000" font-family="sans-serif" font-size="11" font-weight="bold" lengthAdjust="spacing" textLength="272" x="2198.5" y="871.4863">[$RETURN_VALUE = $ERROR_CODE_RECONFIG]</text><line style="stroke:#181818;stroke-width:1.0;" x1="2471" x2="2513" y1="912.7832" y2="912.7832"/><line style="stroke:#181818;stroke-width:1.0;" x1="2513" x2="2513" y1="912.7832" y2="925.7832"/><line style="stroke:#181818;stroke-width:1.0;" x1="2472" x2="2513" y1="925.7832" y2="925.7832"/><polygon fill="#181818" points="2482,921.7832,2472,925.7832,2482,929.7832,2478,925.7832" style="stroke:#181818;stroke-width:1.0;"/><text fill="#000000" font-family="sans-serif" font-size="13" lengthAdjust="spacing" textLength="107" x="2478" y="892.7305">this.restart again</text><text fill="#000000" font-family="sans-serif" font-size="13" lengthAdjust="spacing" textLength="154" x="2482" y="908.041"># exited back into this 7</text><polygon fill="#181818" points="2166,966.4043,2156,970.4043,2166,974.4043,2162,970.4043" style="stroke:#181818;stroke-width:1.0;"/><line style="stroke:#181818;stroke-width:1.0;" x1="2160" x2="2470" y1="970.4043" y2="970.4043"/><text fill="#000000" font-family="sans-serif" font-size="13" lengthAdjust="spacing" textLength="92" x="2172" y="950.3516">source .bashrc</text><text fill="#000000" font-family="sans-serif" font-size="13" lengthAdjust="spacing" textLength="288" x="2176" y="965.6621">[oosh sshConfig] has started reconfigured &gt; |</text><line style="stroke:#000000;stroke-width:1.0;stroke-dasharray:2.0,2.0;" x1="2121.5" x2="2809" y1="979.4043" y2="979.4043"/><polygon fill="#181818" points="2767,997.7148,2777,1001.7148,2767,1005.7148,2771,1001.7148" style="stroke:#181818;stroke-width:1.0;"/><line style="stroke:#181818;stroke-width:1.0;" x1="2471" x2="2773" y1="1001.7148" y2="1001.7148"/><text fill="#000000" font-family="sans-serif" font-size="13" lengthAdjust="spacing" textLength="284" x="2478" y="996.9727">finally exiting oosh (in this.start case restart)</text><path d="M20,1030.7148 L205,1030.7148 L205,1038.0254 L195,1048.0254 L20,1048.0254 L20,1030.7148 " fill="#EEEEEE" style="stroke:#000000;stroke-width:1.5;"/><rect fill="none" height="46.6211" style="stroke:#000000;stroke-width:1.5;" width="1138" x="20" y="1030.7148"/><text fill="#000000" font-family="sans-serif" font-size="13" font-weight="bold" lengthAdjust="spacing" textLength="140" x="35" y="1044.2832">Local De-Installation</text><polygon fill="#181818" points="1066.5,1065.3359,1076.5,1069.3359,1066.5,1073.3359,1070.5,1069.3359" style="stroke:#181818;stroke-width:1.0;"/><line style="stroke:#181818;stroke-width:1.0;" x1="51.5" x2="1072.5" y1="1069.3359" y2="1069.3359"/><text fill="#000000" font-family="sans-serif" font-size="13" lengthAdjust="spacing" textLength="117" x="58.5" y="1064.5938">init/deinstall.oosh</text><!--MD5=[797cd760dd5d80dc7bf008c1ad226a45]
@startuml
actor Actor as a
participant sh
participant "init/oosh" as oosh 
participant "init/deinstall.oosh" as deinstall.oosh 
participant ossh
participant oo
participant bash
participant this

group Installation from GitHub
    alt curl
    else wget
        a -> sh: env -i sh -c "$(wget -O- https://raw.githubusercontent.com/Cerulean-Circle-GmbH/once.sh/main/init/oosh)"
    else fetch
    end
end
group Local Installation
    a -> oosh: init/oosh
    oosh -> sh: #!/bin/sh ### shebang
    sh -> bash: bash this localInstall
    bash -> this: this localInstall
    this -> bash: #!/usr/bin/env bash ### shebang
    this -> oo: oo state # initializes the state machine
    this -> user: user get home \n # hack to make sure the pm is set
    this -> bash: starts new bash
    bash -> bash: source .bashrc \n [oosh sshConfig] has started > |
end
group Remote Installation

    a -> ossh: ossh install <remoteSSHconfig> 

    ossh -> ossh: private.push.oosh
    ossh -> oosh: init/oosh mode ssh <remoteSSHconfig> <localSSHconfig> <localOSSH_MODE>
    ossh -> ossh: ssh $sshConfigHost "bash /home/$user/oosh/ossh continue.local.install from $(ossh.get.url)"
    ossh -> ossh: ossh.install.finish.local <remoteSSHconfig>
end
group Reconfiguration and Exit of oosh
    a -> exit: exit $ERROR_CODE_RECONFIG(defualt is 7)
    exit -> this: this.restart
    alt $RETURN_VALUE = $ERROR_CODE_RECONFIG
        this -> this: this.restart again \n # exited back into this 7
        this -> bash: source .bashrc \n [oosh sshConfig] has started reconfigured > |
    else
        this -> exit: finally exiting oosh (in this.start case restart)
    end
end
group Local De-Installation
    a -> deinstall.oosh: init/deinstall.oosh
end
@enduml

PlantUML version 1.2022.5(Sat Apr 30 12:55:52 CEST 2022)
(GPL source distribution)
Java Runtime: Java(TM) SE Runtime Environment
JVM: Java HotSpot(TM) 64-Bit Server VM
Default Encoding: UTF-8
Language: en
Country: GB
--></g></svg>