<?xml version="1.0" encoding="UTF-8" standalone="no"?><svg xmlns="http://www.w3.org/2000/svg" xmlns:xlink="http://www.w3.org/1999/xlink" contentStyleType="text/css" height="1426px" preserveAspectRatio="none" style="width:3290px;height:1426px;background:#FFFFFF;" version="1.1" viewBox="0 0 3290 1426" width="3290px" zoomAndPan="magnify"><defs/><g><rect height="107.8418" style="stroke:#000000;stroke-width:1.5;fill:none;" width="807.5" x="10" y="98.4883"/><rect height="76.5313" style="stroke:#000000;stroke-width:1.5;fill:none;" width="787.5" x="20" y="122.7988"/><rect height="324.7266" style="stroke:#000000;stroke-width:1.5;fill:none;" width="3190" x="20" y="220.3301"/><rect height="454.3027" style="stroke:#000000;stroke-width:1.5;fill:none;" width="2955.5" x="20" y="559.0566"/><rect height="208.1289" style="stroke:#000000;stroke-width:1.5;fill:none;" width="2053.5" x="912" y="684.2988"/><rect height="240.7949" style="stroke:#000000;stroke-width:1.5;fill:none;" width="3264" x="20" y="1027.3594"/><rect height="150.8633" style="stroke:#000000;stroke-width:1.5;fill:none;" width="1152.5" x="2121.5" y="1110.291"/><rect height="46.6211" style="stroke:#000000;stroke-width:1.5;fill:none;" width="1138" x="20" y="1282.1543"/><line style="stroke:#181818;stroke-width:0.5;fill:none;stroke-dasharray:5.0,5.0;" x1="51" x2="51" y1="81.4883" y2="1345.7754"/><line style="stroke:#181818;stroke-width:0.5;fill:none;stroke-dasharray:5.0,5.0;" x1="782.5" x2="782.5" y1="81.4883" y2="1345.7754"/><line style="stroke:#181818;stroke-width:0.5;fill:none;stroke-dasharray:5.0,5.0;" x1="960" x2="960" y1="81.4883" y2="1345.7754"/><line style="stroke:#181818;stroke-width:0.5;fill:none;stroke-dasharray:5.0,5.0;" x1="1078" x2="1078" y1="81.4883" y2="1345.7754"/><line style="stroke:#181818;stroke-width:0.5;fill:none;stroke-dasharray:5.0,5.0;" x1="1491.5" x2="1491.5" y1="81.4883" y2="1345.7754"/><line style="stroke:#181818;stroke-width:0.5;fill:none;stroke-dasharray:5.0,5.0;" x1="2105.5" x2="2105.5" y1="81.4883" y2="1345.7754"/><line style="stroke:#181818;stroke-width:0.5;fill:none;stroke-dasharray:5.0,5.0;" x1="2154.5" x2="2154.5" y1="81.4883" y2="1345.7754"/><line style="stroke:#181818;stroke-width:0.5;fill:none;stroke-dasharray:5.0,5.0;" x1="2935.5" x2="2935.5" y1="81.4883" y2="1345.7754"/><line style="stroke:#181818;stroke-width:0.5;fill:none;stroke-dasharray:5.0,5.0;" x1="3178" x2="3178" y1="81.4883" y2="1345.7754"/><line style="stroke:#181818;stroke-width:0.5;fill:none;stroke-dasharray:5.0,5.0;" x1="3244" x2="3244" y1="81.4883" y2="1345.7754"/><text fill="#000000" font-family="sans-serif" font-size="14" lengthAdjust="spacing" textLength="37" x="30" y="78.5352">Actor</text><ellipse cx="51.5" cy="13.5" fill="#E2E2F0" rx="8" ry="8" style="stroke:#181818;stroke-width:0.5;"/><path d="M51.5,21.5 L51.5,48.5 M38.5,29.5 L64.5,29.5 M51.5,48.5 L38.5,63.5 M51.5,48.5 L64.5,63.5 " fill="none" style="stroke:#181818;stroke-width:0.5;"/><text fill="#000000" font-family="sans-serif" font-size="14" lengthAdjust="spacing" textLength="37" x="30" y="1358.3105">Actor</text><ellipse cx="51.5" cy="1369.7637" fill="#E2E2F0" rx="8" ry="8" style="stroke:#181818;stroke-width:0.5;"/><path d="M51.5,1377.7637 L51.5,1404.7637 M38.5,1385.7637 L64.5,1385.7637 M51.5,1404.7637 L38.5,1419.7637 M51.5,1404.7637 L64.5,1419.7637 " fill="none" style="stroke:#181818;stroke-width:0.5;"/><rect fill="#E2E2F0" height="30.4883" rx="2.5" ry="2.5" style="stroke:#181818;stroke-width:0.5;" width="30" x="767.5" y="50"/><text fill="#000000" font-family="sans-serif" font-size="14" lengthAdjust="spacing" textLength="16" x="774.5" y="70.5352">sh</text><rect fill="#E2E2F0" height="30.4883" rx="2.5" ry="2.5" style="stroke:#181818;stroke-width:0.5;" width="30" x="767.5" y="1344.7754"/><text fill="#000000" font-family="sans-serif" font-size="14" lengthAdjust="spacing" textLength="16" x="774.5" y="1365.3105">sh</text><rect fill="#E2E2F0" height="30.4883" rx="2.5" ry="2.5" style="stroke:#181818;stroke-width:0.5;" width="77" x="922" y="50"/><text fill="#000000" font-family="sans-serif" font-size="14" lengthAdjust="spacing" textLength="63" x="929" y="70.5352">init/oosh</text><rect fill="#E2E2F0" height="30.4883" rx="2.5" ry="2.5" style="stroke:#181818;stroke-width:0.5;" width="77" x="922" y="1344.7754"/><text fill="#000000" font-family="sans-serif" font-size="14" lengthAdjust="spacing" textLength="63" x="929" y="1365.3105">init/oosh</text><rect fill="#E2E2F0" height="30.4883" rx="2.5" ry="2.5" style="stroke:#181818;stroke-width:0.5;" width="139" x="1009" y="50"/><text fill="#000000" font-family="sans-serif" font-size="14" lengthAdjust="spacing" textLength="125" x="1016" y="70.5352">init/deinstall.oosh</text><rect fill="#E2E2F0" height="30.4883" rx="2.5" ry="2.5" style="stroke:#181818;stroke-width:0.5;" width="139" x="1009" y="1344.7754"/><text fill="#000000" font-family="sans-serif" font-size="14" lengthAdjust="spacing" textLength="125" x="1016" y="1365.3105">init/deinstall.oosh</text><rect fill="#E2E2F0" height="30.4883" rx="2.5" ry="2.5" style="stroke:#181818;stroke-width:0.5;" width="46" x="1468.5" y="50"/><text fill="#000000" font-family="sans-serif" font-size="14" lengthAdjust="spacing" textLength="32" x="1475.5" y="70.5352">ossh</text><rect fill="#E2E2F0" height="30.4883" rx="2.5" ry="2.5" style="stroke:#181818;stroke-width:0.5;" width="46" x="1468.5" y="1344.7754"/><text fill="#000000" font-family="sans-serif" font-size="14" lengthAdjust="spacing" textLength="32" x="1475.5" y="1365.3105">ossh</text><rect fill="#E2E2F0" height="30.4883" rx="2.5" ry="2.5" style="stroke:#181818;stroke-width:0.5;" width="32" x="2089.5" y="50"/><text fill="#000000" font-family="sans-serif" font-size="14" lengthAdjust="spacing" textLength="18" x="2096.5" y="70.5352">oo</text><rect fill="#E2E2F0" height="30.4883" rx="2.5" ry="2.5" style="stroke:#181818;stroke-width:0.5;" width="32" x="2089.5" y="1344.7754"/><text fill="#000000" font-family="sans-serif" font-size="14" lengthAdjust="spacing" textLength="18" x="2096.5" y="1365.3105">oo</text><rect fill="#E2E2F0" height="30.4883" rx="2.5" ry="2.5" style="stroke:#181818;stroke-width:0.5;" width="47" x="2131.5" y="50"/><text fill="#000000" font-family="sans-serif" font-size="14" lengthAdjust="spacing" textLength="33" x="2138.5" y="70.5352">bash</text><rect fill="#E2E2F0" height="30.4883" rx="2.5" ry="2.5" style="stroke:#181818;stroke-width:0.5;" width="47" x="2131.5" y="1344.7754"/><text fill="#000000" font-family="sans-serif" font-size="14" lengthAdjust="spacing" textLength="33" x="2138.5" y="1365.3105">bash</text><rect fill="#E2E2F0" height="30.4883" rx="2.5" ry="2.5" style="stroke:#181818;stroke-width:0.5;" width="39" x="2916.5" y="50"/><text fill="#000000" font-family="sans-serif" font-size="14" lengthAdjust="spacing" textLength="25" x="2923.5" y="70.5352">this</text><rect fill="#E2E2F0" height="30.4883" rx="2.5" ry="2.5" style="stroke:#181818;stroke-width:0.5;" width="39" x="2916.5" y="1344.7754"/><text fill="#000000" font-family="sans-serif" font-size="14" lengthAdjust="spacing" textLength="25" x="2923.5" y="1365.3105">this</text><rect fill="#E2E2F0" height="30.4883" rx="2.5" ry="2.5" style="stroke:#181818;stroke-width:0.5;" width="44" x="3156" y="50"/><text fill="#000000" font-family="sans-serif" font-size="14" lengthAdjust="spacing" textLength="30" x="3163" y="70.5352">user</text><rect fill="#E2E2F0" height="30.4883" rx="2.5" ry="2.5" style="stroke:#181818;stroke-width:0.5;" width="44" x="3156" y="1344.7754"/><text fill="#000000" font-family="sans-serif" font-size="14" lengthAdjust="spacing" textLength="30" x="3163" y="1365.3105">user</text><rect fill="#E2E2F0" height="30.4883" rx="2.5" ry="2.5" style="stroke:#181818;stroke-width:0.5;" width="40" x="3224" y="50"/><text fill="#000000" font-family="sans-serif" font-size="14" lengthAdjust="spacing" textLength="26" x="3231" y="70.5352">exit</text><rect fill="#E2E2F0" height="30.4883" rx="2.5" ry="2.5" style="stroke:#181818;stroke-width:0.5;" width="40" x="3224" y="1344.7754"/><text fill="#000000" font-family="sans-serif" font-size="14" lengthAdjust="spacing" textLength="26" x="3231" y="1365.3105">exit</text><path d="M10,98.4883 L217,98.4883 L217,105.7988 L207,115.7988 L10,115.7988 L10,98.4883 " fill="#EEEEEE" style="stroke:#000000;stroke-width:1.5;"/><rect fill="none" height="107.8418" style="stroke:#000000;stroke-width:1.5;" width="807.5" x="10" y="98.4883"/><text fill="#000000" font-family="sans-serif" font-size="13" font-weight="bold" lengthAdjust="spacing" textLength="162" x="25" y="112.0566">Installation from GitHub</text><path d="M20,122.7988 L82,122.7988 L82,130.1094 L72,140.1094 L20,140.1094 L20,122.7988 " fill="#EEEEEE" style="stroke:#000000;stroke-width:1.5;"/><rect fill="none" height="76.5313" style="stroke:#000000;stroke-width:1.5;" width="787.5" x="20" y="122.7988"/><text fill="#000000" font-family="sans-serif" font-size="13" font-weight="bold" lengthAdjust="spacing" textLength="17" x="35" y="136.3672">alt</text><text fill="#000000" font-family="sans-serif" font-size="11" font-weight="bold" lengthAdjust="spacing" textLength="30" x="97" y="135.4336">[curl]</text><line style="stroke:#000000;stroke-width:1.0;stroke-dasharray:2.0,2.0;" x1="20" x2="807.5" y1="141.1094" y2="141.1094"/><text fill="#000000" font-family="sans-serif" font-size="11" font-weight="bold" lengthAdjust="spacing" textLength="34" x="25" y="151.7441">[wget]</text><polygon fill="#181818" points="770.5,172.375,780.5,176.375,770.5,180.375,774.5,176.375" style="stroke:#181818;stroke-width:1.0;"/><line style="stroke:#181818;stroke-width:1.0;" x1="51.5" x2="776.5" y1="176.375" y2="176.375"/><text fill="#000000" font-family="sans-serif" font-size="13" lengthAdjust="spacing" textLength="707" x="58.5" y="171.6328">env -i sh -c "$(wget -O- https://raw.githubusercontent.com/Cerulean-Circle-GmbH/once.sh/main/init/oosh)"</text><line style="stroke:#000000;stroke-width:1.0;stroke-dasharray:2.0,2.0;" x1="20" x2="807.5" y1="185.375" y2="185.375"/><text fill="#000000" font-family="sans-serif" font-size="11" font-weight="bold" lengthAdjust="spacing" textLength="36" x="25" y="196.0098">[fetch]</text><path d="M20,220.3301 L179,220.3301 L179,227.6406 L169,237.6406 L20,237.6406 L20,220.3301 " fill="#EEEEEE" style="stroke:#000000;stroke-width:1.5;"/><rect fill="none" height="324.7266" style="stroke:#000000;stroke-width:1.5;" width="3190" x="20" y="220.3301"/><text fill="#000000" font-family="sans-serif" font-size="13" font-weight="bold" lengthAdjust="spacing" textLength="114" x="35" y="233.8984">Local Installation</text><polygon fill="#181818" points="948.5,254.9512,958.5,258.9512,948.5,262.9512,952.5,258.9512" style="stroke:#181818;stroke-width:1.0;"/><line style="stroke:#181818;stroke-width:1.0;" x1="51.5" x2="954.5" y1="258.9512" y2="258.9512"/><text fill="#000000" font-family="sans-serif" font-size="13" lengthAdjust="spacing" textLength="59" x="58.5" y="254.209">init/oosh</text><polygon fill="#181818" points="793.5,284.2617,783.5,288.2617,793.5,292.2617,789.5,288.2617" style="stroke:#181818;stroke-width:1.0;"/><line style="stroke:#181818;stroke-width:1.0;" x1="787.5" x2="959.5" y1="288.2617" y2="288.2617"/><text fill="#000000" font-family="sans-serif" font-size="13" lengthAdjust="spacing" textLength="12" x="799.5" y="283.5195">1.</text><text fill="#000000" font-family="sans-serif" font-size="13" lengthAdjust="spacing" textLength="138" x="815.5" y="283.5195">!/bin/sh ### shebang</text><polygon fill="#181818" points="2143,313.5723,2153,317.5723,2143,321.5723,2147,317.5723" style="stroke:#181818;stroke-width:1.0;"/><line style="stroke:#181818;stroke-width:1.0;" x1="782.5" x2="2149" y1="317.5723" y2="317.5723"/><text fill="#000000" font-family="sans-serif" font-size="13" lengthAdjust="spacing" textLength="131" x="789.5" y="312.8301">bash this localInstall</text><polygon fill="#181818" points="2924,342.8828,2934,346.8828,2924,350.8828,2928,346.8828" style="stroke:#181818;stroke-width:1.0;"/><line style="stroke:#181818;stroke-width:1.0;" x1="2155" x2="2930" y1="346.8828" y2="346.8828"/><text fill="#000000" font-family="sans-serif" font-size="13" lengthAdjust="spacing" textLength="97" x="2162" y="342.1406">this localInstall</text><polygon fill="#181818" points="2166,372.1934,2156,376.1934,2166,380.1934,2162,376.1934" style="stroke:#181818;stroke-width:1.0;"/><line style="stroke:#181818;stroke-width:1.0;" x1="2160" x2="2935" y1="376.1934" y2="376.1934"/><text fill="#000000" font-family="sans-serif" font-size="13" lengthAdjust="spacing" textLength="12" x="2172" y="371.4512">1.</text><text fill="#000000" font-family="sans-serif" font-size="13" lengthAdjust="spacing" textLength="206" x="2188" y="371.4512">!/usr/bin/env bash ### shebang</text><polygon fill="#181818" points="2116.5,401.5039,2106.5,405.5039,2116.5,409.5039,2112.5,405.5039" style="stroke:#181818;stroke-width:1.0;"/><line style="stroke:#181818;stroke-width:1.0;" x1="2110.5" x2="2935" y1="405.5039" y2="405.5039"/><text fill="#000000" font-family="sans-serif" font-size="13" lengthAdjust="spacing" textLength="244" x="2122.5" y="400.7617">oo state # initializes the state machine</text><polygon fill="#181818" points="3166,446.125,3176,450.125,3166,454.125,3170,450.125" style="stroke:#181818;stroke-width:1.0;"/><line style="stroke:#181818;stroke-width:1.0;" x1="2936" x2="3172" y1="450.125" y2="450.125"/><text fill="#000000" font-family="sans-serif" font-size="13" lengthAdjust="spacing" textLength="90" x="2943" y="430.0723">user get home</text><text fill="#000000" font-family="sans-serif" font-size="13" lengthAdjust="spacing" textLength="214" x="2947" y="445.3828"># hack to make sure the pm is set</text><polygon fill="#181818" points="2166,475.4355,2156,479.4355,2166,483.4355,2162,479.4355" style="stroke:#181818;stroke-width:1.0;"/><line style="stroke:#181818;stroke-width:1.0;" x1="2160" x2="2935" y1="479.4355" y2="479.4355"/><text fill="#000000" font-family="sans-serif" font-size="13" lengthAdjust="spacing" textLength="99" x="2172" y="474.6934">starts new bash</text><line style="stroke:#181818;stroke-width:1.0;" x1="2155" x2="2197" y1="524.0566" y2="524.0566"/><line style="stroke:#181818;stroke-width:1.0;" x1="2197" x2="2197" y1="524.0566" y2="537.0566"/><line style="stroke:#181818;stroke-width:1.0;" x1="2156" x2="2197" y1="537.0566" y2="537.0566"/><polygon fill="#181818" points="2166,533.0566,2156,537.0566,2166,541.0566,2162,537.0566" style="stroke:#181818;stroke-width:1.0;"/><text fill="#000000" font-family="sans-serif" font-size="13" lengthAdjust="spacing" textLength="92" x="2162" y="504.0039">source .bashrc</text><text fill="#000000" font-family="sans-serif" font-size="13" lengthAdjust="spacing" textLength="204" x="2166" y="519.3145">[oosh sshConfig] has started &gt; |</text><path d="M20,559.0566 L195,559.0566 L195,566.3672 L185,576.3672 L20,576.3672 L20,559.0566 " fill="#EEEEEE" style="stroke:#000000;stroke-width:1.5;"/><rect fill="none" height="454.3027" style="stroke:#000000;stroke-width:1.5;" width="2955.5" x="20" y="559.0566"/><text fill="#000000" font-family="sans-serif" font-size="13" font-weight="bold" lengthAdjust="spacing" textLength="130" x="35" y="572.625">Remote Installation</text><polygon fill="#181818" points="1479.5,593.6777,1489.5,597.6777,1479.5,601.6777,1483.5,597.6777" style="stroke:#181818;stroke-width:1.0;"/><line style="stroke:#181818;stroke-width:1.0;" x1="51.5" x2="1485.5" y1="597.6777" y2="597.6777"/><text fill="#000000" font-family="sans-serif" font-size="13" lengthAdjust="spacing" textLength="205" x="58.5" y="592.9355">ossh install &lt;remoteSSHconfig&gt;</text><line style="stroke:#181818;stroke-width:1.0;" x1="1491.5" x2="1533.5" y1="626.9883" y2="626.9883"/><line style="stroke:#181818;stroke-width:1.0;" x1="1533.5" x2="1533.5" y1="626.9883" y2="639.9883"/><line style="stroke:#181818;stroke-width:1.0;" x1="1492.5" x2="1533.5" y1="639.9883" y2="639.9883"/><polygon fill="#181818" points="1502.5,635.9883,1492.5,639.9883,1502.5,643.9883,1498.5,639.9883" style="stroke:#181818;stroke-width:1.0;"/><text fill="#000000" font-family="sans-serif" font-size="13" lengthAdjust="spacing" textLength="113" x="1498.5" y="622.2461">private.push.oosh</text><polygon fill="#181818" points="971.5,665.2988,961.5,669.2988,971.5,673.2988,967.5,669.2988" style="stroke:#181818;stroke-width:1.0;"/><line style="stroke:#181818;stroke-width:1.0;" x1="965.5" x2="1490.5" y1="669.2988" y2="669.2988"/><text fill="#000000" font-family="sans-serif" font-size="13" lengthAdjust="spacing" textLength="507" x="977.5" y="664.5566">init/oosh mode ssh &lt;remoteSSHconfig&gt; &lt;localSSHconfig&gt; &lt;localOSSH_MODE&gt;</text><path d="M912,684.2988 L974,684.2988 L974,691.6094 L964,701.6094 L912,701.6094 L912,684.2988 " fill="#EEEEEE" style="stroke:#000000;stroke-width:1.5;"/><rect fill="none" height="208.1289" style="stroke:#000000;stroke-width:1.5;" width="2053.5" x="912" y="684.2988"/><text fill="#000000" font-family="sans-serif" font-size="13" font-weight="bold" lengthAdjust="spacing" textLength="17" x="927" y="697.8672">alt</text><text fill="#000000" font-family="sans-serif" font-size="11" font-weight="bold" lengthAdjust="spacing" textLength="62" x="989" y="696.9336">[mode ssh]</text><polygon fill="#181818" points="2143,718.9199,2153,722.9199,2143,726.9199,2147,722.9199" style="stroke:#181818;stroke-width:1.0;"/><line style="stroke:#181818;stroke-width:1.0;" x1="960.5" x2="2149" y1="722.9199" y2="722.9199"/><text fill="#000000" font-family="sans-serif" font-size="13" lengthAdjust="spacing" textLength="957" x="967.5" y="718.1777">"$BASH_FILE" -xc "$OOSH_DIR/this call ossh install.continue.local $SSH_CONFIG_FROM_REMOTE $SSH_CONFIG_NAME_USED_FOR_LOCAL $DEV_MODE"</text><polygon fill="#181818" points="2924,748.2305,2934,752.2305,2924,756.2305,2928,752.2305" style="stroke:#181818;stroke-width:1.0;"/><line style="stroke:#181818;stroke-width:1.0;" x1="2155" x2="2930" y1="752.2305" y2="752.2305"/><text fill="#000000" font-family="sans-serif" font-size="13" lengthAdjust="spacing" textLength="757" x="2162" y="747.4883">this call ossh install.continue.local $SSH_CONFIG_FROM_REMOTE $SSH_CONFIG_NAME_USED_FOR_LOCAL $DEV_MODE"</text><polygon fill="#181818" points="1502.5,777.541,1492.5,781.541,1502.5,785.541,1498.5,781.541" style="stroke:#181818;stroke-width:1.0;"/><line style="stroke:#181818;stroke-width:1.0;" x1="1496.5" x2="2935" y1="781.541" y2="781.541"/><text fill="#000000" font-family="sans-serif" font-size="13" lengthAdjust="spacing" textLength="703" x="1508.5" y="776.7988">ossh install.continue.local $SSH_CONFIG_FROM_REMOTE $SSH_CONFIG_NAME_USED_FOR_LOCAL $DEV_MODE"</text><polygon fill="#181818" points="2924,806.8516,2934,810.8516,2924,814.8516,2928,810.8516" style="stroke:#181818;stroke-width:1.0;"/><line style="stroke:#181818;stroke-width:1.0;" x1="1491.5" x2="2930" y1="810.8516" y2="810.8516"/><text fill="#000000" font-family="sans-serif" font-size="13" lengthAdjust="spacing" textLength="50" x="1498.5" y="806.1094">return 0</text><polygon fill="#181818" points="2166,836.1621,2156,840.1621,2166,844.1621,2162,840.1621" style="stroke:#181818;stroke-width:1.0;"/><line style="stroke:#181818;stroke-width:1.0;" x1="2160" x2="2935" y1="840.1621" y2="840.1621"/><text fill="#000000" font-family="sans-serif" font-size="13" lengthAdjust="spacing" textLength="50" x="2172" y="835.4199">return 0</text><polygon fill="#181818" points="971.5,865.4727,961.5,869.4727,971.5,873.4727,967.5,869.4727" style="stroke:#181818;stroke-width:1.0;"/><line style="stroke:#181818;stroke-width:1.0;" x1="965.5" x2="2154" y1="869.4727" y2="869.4727"/><text fill="#000000" font-family="sans-serif" font-size="13" lengthAdjust="spacing" textLength="50" x="977.5" y="864.7305">return 0</text><line style="stroke:#000000;stroke-width:1.0;stroke-dasharray:2.0,2.0;" x1="912" x2="2965.5" y1="878.4727" y2="878.4727"/><text fill="#000000" font-family="sans-serif" font-size="11" font-weight="bold" lengthAdjust="spacing" textLength="67" x="917" y="889.1074">[mode user]</text><polygon fill="#181818" points="1479.5,916.7383,1489.5,920.7383,1479.5,924.7383,1483.5,920.7383" style="stroke:#181818;stroke-width:1.0;"/><line style="stroke:#181818;stroke-width:1.0;" x1="960.5" x2="1485.5" y1="920.7383" y2="920.7383"/><text fill="#000000" font-family="sans-serif" font-size="13" lengthAdjust="spacing" textLength="50" x="967.5" y="915.9961">return 0</text><line style="stroke:#181818;stroke-width:1.0;" x1="1491.5" x2="1533.5" y1="950.0488" y2="950.0488"/><line style="stroke:#181818;stroke-width:1.0;" x1="1533.5" x2="1533.5" y1="950.0488" y2="963.0488"/><line style="stroke:#181818;stroke-width:1.0;" x1="1492.5" x2="1533.5" y1="963.0488" y2="963.0488"/><polygon fill="#181818" points="1502.5,959.0488,1492.5,963.0488,1502.5,967.0488,1498.5,963.0488" style="stroke:#181818;stroke-width:1.0;"/><text fill="#000000" font-family="sans-serif" font-size="13" lengthAdjust="spacing" textLength="600" x="1498.5" y="945.3066">ssh $sshConfigHost "bash /home/$user/oosh/ossh continue.local.install from $(ossh.get.url)"</text><line style="stroke:#181818;stroke-width:1.0;" x1="1491.5" x2="1533.5" y1="992.3594" y2="992.3594"/><line style="stroke:#181818;stroke-width:1.0;" x1="1533.5" x2="1533.5" y1="992.3594" y2="1005.3594"/><line style="stroke:#181818;stroke-width:1.0;" x1="1492.5" x2="1533.5" y1="1005.3594" y2="1005.3594"/><polygon fill="#181818" points="1502.5,1001.3594,1492.5,1005.3594,1502.5,1009.3594,1498.5,1005.3594" style="stroke:#181818;stroke-width:1.0;"/><text fill="#000000" font-family="sans-serif" font-size="13" lengthAdjust="spacing" textLength="279" x="1498.5" y="987.6172">ossh.install.finish.local &lt;remoteSSHconfig&gt;</text><path d="M20,1027.3594 L285,1027.3594 L285,1034.6699 L275,1044.6699 L20,1044.6699 L20,1027.3594 " fill="#EEEEEE" style="stroke:#000000;stroke-width:1.5;"/><rect fill="none" height="240.7949" style="stroke:#000000;stroke-width:1.5;" width="3264" x="20" y="1027.3594"/><text fill="#000000" font-family="sans-serif" font-size="13" font-weight="bold" lengthAdjust="spacing" textLength="220" x="35" y="1040.9277">Reconfiguration and Exit of oosh</text><polygon fill="#181818" points="3232,1061.9805,3242,1065.9805,3232,1069.9805,3236,1065.9805" style="stroke:#181818;stroke-width:1.0;"/><line style="stroke:#181818;stroke-width:1.0;" x1="51.5" x2="3238" y1="1065.9805" y2="1065.9805"/><text fill="#000000" font-family="sans-serif" font-size="13" lengthAdjust="spacing" textLength="270" x="58.5" y="1061.2383">exit $ERROR_CODE_RECONFIG(defualt is 7)</text><polygon fill="#181818" points="2947,1091.291,2937,1095.291,2947,1099.291,2943,1095.291" style="stroke:#181818;stroke-width:1.0;"/><line style="stroke:#181818;stroke-width:1.0;" x1="2941" x2="3243" y1="1095.291" y2="1095.291"/><text fill="#000000" font-family="sans-serif" font-size="13" lengthAdjust="spacing" textLength="69" x="2953" y="1090.5488">this.restart</text><path d="M2121.5,1110.291 L2183.5,1110.291 L2183.5,1117.6016 L2173.5,1127.6016 L2121.5,1127.6016 L2121.5,1110.291 " fill="#EEEEEE" style="stroke:#000000;stroke-width:1.5;"/><rect fill="none" height="150.8633" style="stroke:#000000;stroke-width:1.5;" width="1152.5" x="2121.5" y="1110.291"/><text fill="#000000" font-family="sans-serif" font-size="13" font-weight="bold" lengthAdjust="spacing" textLength="17" x="2136.5" y="1123.8594">alt</text><text fill="#000000" font-family="sans-serif" font-size="11" font-weight="bold" lengthAdjust="spacing" textLength="272" x="2198.5" y="1122.9258">[$RETURN_VALUE = $ERROR_CODE_RECONFIG]</text><line style="stroke:#181818;stroke-width:1.0;" x1="2936" x2="2978" y1="1164.2227" y2="1164.2227"/><line style="stroke:#181818;stroke-width:1.0;" x1="2978" x2="2978" y1="1164.2227" y2="1177.2227"/><line style="stroke:#181818;stroke-width:1.0;" x1="2937" x2="2978" y1="1177.2227" y2="1177.2227"/><polygon fill="#181818" points="2947,1173.2227,2937,1177.2227,2947,1181.2227,2943,1177.2227" style="stroke:#181818;stroke-width:1.0;"/><text fill="#000000" font-family="sans-serif" font-size="13" lengthAdjust="spacing" textLength="107" x="2943" y="1144.1699">this.restart again</text><text fill="#000000" font-family="sans-serif" font-size="13" lengthAdjust="spacing" textLength="154" x="2947" y="1159.4805"># exited back into this 7</text><polygon fill="#181818" points="2166,1217.8438,2156,1221.8438,2166,1225.8438,2162,1221.8438" style="stroke:#181818;stroke-width:1.0;"/><line style="stroke:#181818;stroke-width:1.0;" x1="2160" x2="2935" y1="1221.8438" y2="1221.8438"/><text fill="#000000" font-family="sans-serif" font-size="13" lengthAdjust="spacing" textLength="92" x="2172" y="1201.791">source .bashrc</text><text fill="#000000" font-family="sans-serif" font-size="13" lengthAdjust="spacing" textLength="288" x="2176" y="1217.1016">[oosh sshConfig] has started reconfigured &gt; |</text><line style="stroke:#000000;stroke-width:1.0;stroke-dasharray:2.0,2.0;" x1="2121.5" x2="3274" y1="1230.8438" y2="1230.8438"/><polygon fill="#181818" points="3232,1249.1543,3242,1253.1543,3232,1257.1543,3236,1253.1543" style="stroke:#181818;stroke-width:1.0;"/><line style="stroke:#181818;stroke-width:1.0;" x1="2936" x2="3238" y1="1253.1543" y2="1253.1543"/><text fill="#000000" font-family="sans-serif" font-size="13" lengthAdjust="spacing" textLength="284" x="2943" y="1248.4121">finally exiting oosh (in this.start case restart)</text><path d="M20,1282.1543 L205,1282.1543 L205,1289.4648 L195,1299.4648 L20,1299.4648 L20,1282.1543 " fill="#EEEEEE" style="stroke:#000000;stroke-width:1.5;"/><rect fill="none" height="46.6211" style="stroke:#000000;stroke-width:1.5;" width="1138" x="20" y="1282.1543"/><text fill="#000000" font-family="sans-serif" font-size="13" font-weight="bold" lengthAdjust="spacing" textLength="140" x="35" y="1295.7227">Local De-Installation</text><polygon fill="#181818" points="1066.5,1316.7754,1076.5,1320.7754,1066.5,1324.7754,1070.5,1320.7754" style="stroke:#181818;stroke-width:1.0;"/><line style="stroke:#181818;stroke-width:1.0;" x1="51.5" x2="1072.5" y1="1320.7754" y2="1320.7754"/><text fill="#000000" font-family="sans-serif" font-size="13" lengthAdjust="spacing" textLength="117" x="58.5" y="1316.0332">init/deinstall.oosh</text><!--MD5=[9311b4c53ec7ec3e1ea434931bbaceed]
@startuml
actor Actor as a
participant sh
participant "init/oosh" as oosh 
participant "init/deinstall.oosh" as deinstall.oosh 
participant ossh
participant oo
participant bash
participant this

group Installation from GitHub
    alt curl
    else wget
        a -> sh: env -i sh -c "$(wget -O- https://raw.githubusercontent.com/Cerulean-Circle-GmbH/once.sh/main/init/oosh)"
    else fetch
    end
end
group Local Installation
    a -> oosh: init/oosh
    oosh -> sh: #!/bin/sh ### shebang
    sh -> bash: bash this localInstall
    bash -> this: this localInstall
    this -> bash: #!/usr/bin/env bash ### shebang
    this -> oo: oo state # initializes the state machine
    this -> user: user get home \n # hack to make sure the pm is set
    this -> bash: starts new bash
    bash -> bash: source .bashrc \n [oosh sshConfig] has started > |
end
group Remote Installation

    a -> ossh: ossh install <remoteSSHconfig> 

    ossh -> ossh: private.push.oosh
    ossh -> oosh: init/oosh mode ssh <remoteSSHconfig> <localSSHconfig> <localOSSH_MODE>
    alt mode ssh
        oosh -> bash: "$BASH_FILE" -xc "$OOSH_DIR/this call ossh install.continue.local $SSH_CONFIG_FROM_REMOTE $SSH_CONFIG_NAME_USED_FOR_LOCAL $DEV_MODE"
        bash -> this: this call ossh install.continue.local $SSH_CONFIG_FROM_REMOTE $SSH_CONFIG_NAME_USED_FOR_LOCAL $DEV_MODE"
        this -> ossh: ossh install.continue.local $SSH_CONFIG_FROM_REMOTE $SSH_CONFIG_NAME_USED_FOR_LOCAL $DEV_MODE"
        ossh -> this: return 0
        this -> bash: return 0
        bash -> oosh: return 0
    else mode user
    end
    oosh -> ossh: return 0
    
    ossh -> ossh: ssh $sshConfigHost "bash /home/$user/oosh/ossh continue.local.install from $(ossh.get.url)"
    ossh -> ossh: ossh.install.finish.local <remoteSSHconfig>
end
group Reconfiguration and Exit of oosh
    a -> exit: exit $ERROR_CODE_RECONFIG(defualt is 7)
    exit -> this: this.restart
    alt $RETURN_VALUE = $ERROR_CODE_RECONFIG
        this -> this: this.restart again \n # exited back into this 7
        this -> bash: source .bashrc \n [oosh sshConfig] has started reconfigured > |
    else
        this -> exit: finally exiting oosh (in this.start case restart)
    end
end
group Local De-Installation
    a -> deinstall.oosh: init/deinstall.oosh
end
@enduml

PlantUML version 1.2022.5(Sat Apr 30 12:55:52 CEST 2022)
(GPL source distribution)
Java Runtime: Java(TM) SE Runtime Environment
JVM: Java HotSpot(TM) 64-Bit Server VM
Default Encoding: UTF-8
Language: en
Country: GB
--></g></svg>