<?xml version="1.0" encoding="UTF-8" standalone="no"?><svg xmlns="http://www.w3.org/2000/svg" xmlns:xlink="http://www.w3.org/1999/xlink" contentStyleType="text/css" height="1560px" preserveAspectRatio="none" style="width:3076px;height:1560px;background:#FFFFFF;" version="1.1" viewBox="0 0 3076 1560" width="3076px" zoomAndPan="magnify"><defs/><g><rect height="107.8418" style="stroke:#000000;stroke-width:1.5;fill:none;" width="807.5" x="10" y="98.4883"/><rect height="76.5313" style="stroke:#000000;stroke-width:1.5;fill:none;" width="787.5" x="20" y="122.7988"/><rect height="324.7266" style="stroke:#000000;stroke-width:1.5;fill:none;" width="2976.5" x="20" y="220.3301"/><rect height="587.8555" style="stroke:#000000;stroke-width:1.5;fill:none;" width="2742" x="20" y="559.0566"/><rect height="383.9922" style="stroke:#000000;stroke-width:1.5;fill:none;" width="1840" x="912" y="684.2988"/><rect height="240.7949" style="stroke:#000000;stroke-width:1.5;fill:none;" width="3050.5" x="20" y="1160.9121"/><rect height="150.8633" style="stroke:#000000;stroke-width:1.5;fill:none;" width="1152.5" x="1908" y="1243.8438"/><rect height="46.6211" style="stroke:#000000;stroke-width:1.5;fill:none;" width="1138" x="20" y="1415.707"/><line style="stroke:#181818;stroke-width:0.5;fill:none;stroke-dasharray:5.0,5.0;" x1="51" x2="51" y1="81.4883" y2="1479.3281"/><line style="stroke:#181818;stroke-width:0.5;fill:none;stroke-dasharray:5.0,5.0;" x1="782.5" x2="782.5" y1="81.4883" y2="1479.3281"/><line style="stroke:#181818;stroke-width:0.5;fill:none;stroke-dasharray:5.0,5.0;" x1="960" x2="960" y1="81.4883" y2="1479.3281"/><line style="stroke:#181818;stroke-width:0.5;fill:none;stroke-dasharray:5.0,5.0;" x1="1078" x2="1078" y1="81.4883" y2="1479.3281"/><line style="stroke:#181818;stroke-width:0.5;fill:none;stroke-dasharray:5.0,5.0;" x1="1491.5" x2="1491.5" y1="81.4883" y2="1479.3281"/><line style="stroke:#181818;stroke-width:0.5;fill:none;stroke-dasharray:5.0,5.0;" x1="1784.5" x2="1784.5" y1="81.4883" y2="1479.3281"/><line style="stroke:#181818;stroke-width:0.5;fill:none;stroke-dasharray:5.0,5.0;" x1="1941" x2="1941" y1="81.4883" y2="1479.3281"/><line style="stroke:#181818;stroke-width:0.5;fill:none;stroke-dasharray:5.0,5.0;" x1="2722" x2="2722" y1="81.4883" y2="1479.3281"/><line style="stroke:#181818;stroke-width:0.5;fill:none;stroke-dasharray:5.0,5.0;" x1="2964.5" x2="2964.5" y1="81.4883" y2="1479.3281"/><line style="stroke:#181818;stroke-width:0.5;fill:none;stroke-dasharray:5.0,5.0;" x1="3030.5" x2="3030.5" y1="81.4883" y2="1479.3281"/><text fill="#000000" font-family="sans-serif" font-size="14" lengthAdjust="spacing" textLength="37" x="30" y="78.5352">Actor</text><ellipse cx="51.5" cy="13.5" fill="#E2E2F0" rx="8" ry="8" style="stroke:#181818;stroke-width:0.5;"/><path d="M51.5,21.5 L51.5,48.5 M38.5,29.5 L64.5,29.5 M51.5,48.5 L38.5,63.5 M51.5,48.5 L64.5,63.5 " fill="none" style="stroke:#181818;stroke-width:0.5;"/><text fill="#000000" font-family="sans-serif" font-size="14" lengthAdjust="spacing" textLength="37" x="30" y="1491.8633">Actor</text><ellipse cx="51.5" cy="1503.3164" fill="#E2E2F0" rx="8" ry="8" style="stroke:#181818;stroke-width:0.5;"/><path d="M51.5,1511.3164 L51.5,1538.3164 M38.5,1519.3164 L64.5,1519.3164 M51.5,1538.3164 L38.5,1553.3164 M51.5,1538.3164 L64.5,1553.3164 " fill="none" style="stroke:#181818;stroke-width:0.5;"/><rect fill="#E2E2F0" height="30.4883" rx="2.5" ry="2.5" style="stroke:#181818;stroke-width:0.5;" width="30" x="767.5" y="50"/><text fill="#000000" font-family="sans-serif" font-size="14" lengthAdjust="spacing" textLength="16" x="774.5" y="70.5352">sh</text><rect fill="#E2E2F0" height="30.4883" rx="2.5" ry="2.5" style="stroke:#181818;stroke-width:0.5;" width="30" x="767.5" y="1478.3281"/><text fill="#000000" font-family="sans-serif" font-size="14" lengthAdjust="spacing" textLength="16" x="774.5" y="1498.8633">sh</text><rect fill="#E2E2F0" height="30.4883" rx="2.5" ry="2.5" style="stroke:#181818;stroke-width:0.5;" width="77" x="922" y="50"/><text fill="#000000" font-family="sans-serif" font-size="14" lengthAdjust="spacing" textLength="63" x="929" y="70.5352">init/oosh</text><rect fill="#E2E2F0" height="30.4883" rx="2.5" ry="2.5" style="stroke:#181818;stroke-width:0.5;" width="77" x="922" y="1478.3281"/><text fill="#000000" font-family="sans-serif" font-size="14" lengthAdjust="spacing" textLength="63" x="929" y="1498.8633">init/oosh</text><rect fill="#E2E2F0" height="30.4883" rx="2.5" ry="2.5" style="stroke:#181818;stroke-width:0.5;" width="139" x="1009" y="50"/><text fill="#000000" font-family="sans-serif" font-size="14" lengthAdjust="spacing" textLength="125" x="1016" y="70.5352">init/deinstall.oosh</text><rect fill="#E2E2F0" height="30.4883" rx="2.5" ry="2.5" style="stroke:#181818;stroke-width:0.5;" width="139" x="1009" y="1478.3281"/><text fill="#000000" font-family="sans-serif" font-size="14" lengthAdjust="spacing" textLength="125" x="1016" y="1498.8633">init/deinstall.oosh</text><rect fill="#E2E2F0" height="30.4883" rx="2.5" ry="2.5" style="stroke:#181818;stroke-width:0.5;" width="46" x="1468.5" y="50"/><text fill="#000000" font-family="sans-serif" font-size="14" lengthAdjust="spacing" textLength="32" x="1475.5" y="70.5352">ossh</text><rect fill="#E2E2F0" height="30.4883" rx="2.5" ry="2.5" style="stroke:#181818;stroke-width:0.5;" width="46" x="1468.5" y="1478.3281"/><text fill="#000000" font-family="sans-serif" font-size="14" lengthAdjust="spacing" textLength="32" x="1475.5" y="1498.8633">ossh</text><rect fill="#E2E2F0" height="30.4883" rx="2.5" ry="2.5" style="stroke:#181818;stroke-width:0.5;" width="32" x="1768.5" y="50"/><text fill="#000000" font-family="sans-serif" font-size="14" lengthAdjust="spacing" textLength="18" x="1775.5" y="70.5352">oo</text><rect fill="#E2E2F0" height="30.4883" rx="2.5" ry="2.5" style="stroke:#181818;stroke-width:0.5;" width="32" x="1768.5" y="1478.3281"/><text fill="#000000" font-family="sans-serif" font-size="14" lengthAdjust="spacing" textLength="18" x="1775.5" y="1498.8633">oo</text><rect fill="#E2E2F0" height="30.4883" rx="2.5" ry="2.5" style="stroke:#181818;stroke-width:0.5;" width="47" x="1918" y="50"/><text fill="#000000" font-family="sans-serif" font-size="14" lengthAdjust="spacing" textLength="33" x="1925" y="70.5352">bash</text><rect fill="#E2E2F0" height="30.4883" rx="2.5" ry="2.5" style="stroke:#181818;stroke-width:0.5;" width="47" x="1918" y="1478.3281"/><text fill="#000000" font-family="sans-serif" font-size="14" lengthAdjust="spacing" textLength="33" x="1925" y="1498.8633">bash</text><rect fill="#E2E2F0" height="30.4883" rx="2.5" ry="2.5" style="stroke:#181818;stroke-width:0.5;" width="39" x="2703" y="50"/><text fill="#000000" font-family="sans-serif" font-size="14" lengthAdjust="spacing" textLength="25" x="2710" y="70.5352">this</text><rect fill="#E2E2F0" height="30.4883" rx="2.5" ry="2.5" style="stroke:#181818;stroke-width:0.5;" width="39" x="2703" y="1478.3281"/><text fill="#000000" font-family="sans-serif" font-size="14" lengthAdjust="spacing" textLength="25" x="2710" y="1498.8633">this</text><rect fill="#E2E2F0" height="30.4883" rx="2.5" ry="2.5" style="stroke:#181818;stroke-width:0.5;" width="44" x="2942.5" y="50"/><text fill="#000000" font-family="sans-serif" font-size="14" lengthAdjust="spacing" textLength="30" x="2949.5" y="70.5352">user</text><rect fill="#E2E2F0" height="30.4883" rx="2.5" ry="2.5" style="stroke:#181818;stroke-width:0.5;" width="44" x="2942.5" y="1478.3281"/><text fill="#000000" font-family="sans-serif" font-size="14" lengthAdjust="spacing" textLength="30" x="2949.5" y="1498.8633">user</text><rect fill="#E2E2F0" height="30.4883" rx="2.5" ry="2.5" style="stroke:#181818;stroke-width:0.5;" width="40" x="3010.5" y="50"/><text fill="#000000" font-family="sans-serif" font-size="14" lengthAdjust="spacing" textLength="26" x="3017.5" y="70.5352">exit</text><rect fill="#E2E2F0" height="30.4883" rx="2.5" ry="2.5" style="stroke:#181818;stroke-width:0.5;" width="40" x="3010.5" y="1478.3281"/><text fill="#000000" font-family="sans-serif" font-size="14" lengthAdjust="spacing" textLength="26" x="3017.5" y="1498.8633">exit</text><path d="M10,98.4883 L217,98.4883 L217,105.7988 L207,115.7988 L10,115.7988 L10,98.4883 " fill="#EEEEEE" style="stroke:#000000;stroke-width:1.5;"/><rect fill="none" height="107.8418" style="stroke:#000000;stroke-width:1.5;" width="807.5" x="10" y="98.4883"/><text fill="#000000" font-family="sans-serif" font-size="13" font-weight="bold" lengthAdjust="spacing" textLength="162" x="25" y="112.0566">Installation from GitHub</text><path d="M20,122.7988 L82,122.7988 L82,130.1094 L72,140.1094 L20,140.1094 L20,122.7988 " fill="#EEEEEE" style="stroke:#000000;stroke-width:1.5;"/><rect fill="none" height="76.5313" style="stroke:#000000;stroke-width:1.5;" width="787.5" x="20" y="122.7988"/><text fill="#000000" font-family="sans-serif" font-size="13" font-weight="bold" lengthAdjust="spacing" textLength="17" x="35" y="136.3672">alt</text><text fill="#000000" font-family="sans-serif" font-size="11" font-weight="bold" lengthAdjust="spacing" textLength="30" x="97" y="135.4336">[curl]</text><line style="stroke:#000000;stroke-width:1.0;stroke-dasharray:2.0,2.0;" x1="20" x2="807.5" y1="141.1094" y2="141.1094"/><text fill="#000000" font-family="sans-serif" font-size="11" font-weight="bold" lengthAdjust="spacing" textLength="34" x="25" y="151.7441">[wget]</text><polygon fill="#181818" points="770.5,172.375,780.5,176.375,770.5,180.375,774.5,176.375" style="stroke:#181818;stroke-width:1.0;"/><line style="stroke:#181818;stroke-width:1.0;" x1="51.5" x2="776.5" y1="176.375" y2="176.375"/><text fill="#000000" font-family="sans-serif" font-size="13" lengthAdjust="spacing" textLength="707" x="58.5" y="171.6328">env -i sh -c "$(wget -O- https://raw.githubusercontent.com/Cerulean-Circle-GmbH/once.sh/main/init/oosh)"</text><line style="stroke:#000000;stroke-width:1.0;stroke-dasharray:2.0,2.0;" x1="20" x2="807.5" y1="185.375" y2="185.375"/><text fill="#000000" font-family="sans-serif" font-size="11" font-weight="bold" lengthAdjust="spacing" textLength="36" x="25" y="196.0098">[fetch]</text><path d="M20,220.3301 L179,220.3301 L179,227.6406 L169,237.6406 L20,237.6406 L20,220.3301 " fill="#EEEEEE" style="stroke:#000000;stroke-width:1.5;"/><rect fill="none" height="324.7266" style="stroke:#000000;stroke-width:1.5;" width="2976.5" x="20" y="220.3301"/><text fill="#000000" font-family="sans-serif" font-size="13" font-weight="bold" lengthAdjust="spacing" textLength="114" x="35" y="233.8984">Local Installation</text><polygon fill="#181818" points="948.5,254.9512,958.5,258.9512,948.5,262.9512,952.5,258.9512" style="stroke:#181818;stroke-width:1.0;"/><line style="stroke:#181818;stroke-width:1.0;" x1="51.5" x2="954.5" y1="258.9512" y2="258.9512"/><text fill="#000000" font-family="sans-serif" font-size="13" lengthAdjust="spacing" textLength="59" x="58.5" y="254.209">init/oosh</text><polygon fill="#181818" points="793.5,284.2617,783.5,288.2617,793.5,292.2617,789.5,288.2617" style="stroke:#181818;stroke-width:1.0;"/><line style="stroke:#181818;stroke-width:1.0;" x1="787.5" x2="959.5" y1="288.2617" y2="288.2617"/><text fill="#000000" font-family="sans-serif" font-size="13" lengthAdjust="spacing" textLength="12" x="799.5" y="283.5195">1.</text><text fill="#000000" font-family="sans-serif" font-size="13" lengthAdjust="spacing" textLength="138" x="815.5" y="283.5195">!/bin/sh ### shebang</text><polygon fill="#181818" points="1929.5,313.5723,1939.5,317.5723,1929.5,321.5723,1933.5,317.5723" style="stroke:#181818;stroke-width:1.0;"/><line style="stroke:#181818;stroke-width:1.0;" x1="782.5" x2="1935.5" y1="317.5723" y2="317.5723"/><text fill="#000000" font-family="sans-serif" font-size="13" lengthAdjust="spacing" textLength="131" x="789.5" y="312.8301">bash this localInstall</text><polygon fill="#181818" points="2710.5,342.8828,2720.5,346.8828,2710.5,350.8828,2714.5,346.8828" style="stroke:#181818;stroke-width:1.0;"/><line style="stroke:#181818;stroke-width:1.0;" x1="1941.5" x2="2716.5" y1="346.8828" y2="346.8828"/><text fill="#000000" font-family="sans-serif" font-size="13" lengthAdjust="spacing" textLength="97" x="1948.5" y="342.1406">this localInstall</text><polygon fill="#181818" points="1952.5,372.1934,1942.5,376.1934,1952.5,380.1934,1948.5,376.1934" style="stroke:#181818;stroke-width:1.0;"/><line style="stroke:#181818;stroke-width:1.0;" x1="1946.5" x2="2721.5" y1="376.1934" y2="376.1934"/><text fill="#000000" font-family="sans-serif" font-size="13" lengthAdjust="spacing" textLength="12" x="1958.5" y="371.4512">1.</text><text fill="#000000" font-family="sans-serif" font-size="13" lengthAdjust="spacing" textLength="206" x="1974.5" y="371.4512">!/usr/bin/env bash ### shebang</text><polygon fill="#181818" points="1795.5,401.5039,1785.5,405.5039,1795.5,409.5039,1791.5,405.5039" style="stroke:#181818;stroke-width:1.0;"/><line style="stroke:#181818;stroke-width:1.0;" x1="1789.5" x2="2721.5" y1="405.5039" y2="405.5039"/><text fill="#000000" font-family="sans-serif" font-size="13" lengthAdjust="spacing" textLength="244" x="1801.5" y="400.7617">oo state # initializes the state machine</text><polygon fill="#181818" points="2952.5,446.125,2962.5,450.125,2952.5,454.125,2956.5,450.125" style="stroke:#181818;stroke-width:1.0;"/><line style="stroke:#181818;stroke-width:1.0;" x1="2722.5" x2="2958.5" y1="450.125" y2="450.125"/><text fill="#000000" font-family="sans-serif" font-size="13" lengthAdjust="spacing" textLength="90" x="2729.5" y="430.0723">user get home</text><text fill="#000000" font-family="sans-serif" font-size="13" lengthAdjust="spacing" textLength="214" x="2733.5" y="445.3828"># hack to make sure the pm is set</text><polygon fill="#181818" points="1952.5,475.4355,1942.5,479.4355,1952.5,483.4355,1948.5,479.4355" style="stroke:#181818;stroke-width:1.0;"/><line style="stroke:#181818;stroke-width:1.0;" x1="1946.5" x2="2721.5" y1="479.4355" y2="479.4355"/><text fill="#000000" font-family="sans-serif" font-size="13" lengthAdjust="spacing" textLength="99" x="1958.5" y="474.6934">starts new bash</text><line style="stroke:#181818;stroke-width:1.0;" x1="1941.5" x2="1983.5" y1="524.0566" y2="524.0566"/><line style="stroke:#181818;stroke-width:1.0;" x1="1983.5" x2="1983.5" y1="524.0566" y2="537.0566"/><line style="stroke:#181818;stroke-width:1.0;" x1="1942.5" x2="1983.5" y1="537.0566" y2="537.0566"/><polygon fill="#181818" points="1952.5,533.0566,1942.5,537.0566,1952.5,541.0566,1948.5,537.0566" style="stroke:#181818;stroke-width:1.0;"/><text fill="#000000" font-family="sans-serif" font-size="13" lengthAdjust="spacing" textLength="92" x="1948.5" y="504.0039">source .bashrc</text><text fill="#000000" font-family="sans-serif" font-size="13" lengthAdjust="spacing" textLength="204" x="1952.5" y="519.3145">[oosh sshConfig] has started &gt; |</text><path d="M20,559.0566 L195,559.0566 L195,566.3672 L185,576.3672 L20,576.3672 L20,559.0566 " fill="#EEEEEE" style="stroke:#000000;stroke-width:1.5;"/><rect fill="none" height="587.8555" style="stroke:#000000;stroke-width:1.5;" width="2742" x="20" y="559.0566"/><text fill="#000000" font-family="sans-serif" font-size="13" font-weight="bold" lengthAdjust="spacing" textLength="130" x="35" y="572.625">Remote Installation</text><polygon fill="#181818" points="1479.5,593.6777,1489.5,597.6777,1479.5,601.6777,1483.5,597.6777" style="stroke:#181818;stroke-width:1.0;"/><line style="stroke:#181818;stroke-width:1.0;" x1="51.5" x2="1485.5" y1="597.6777" y2="597.6777"/><text fill="#000000" font-family="sans-serif" font-size="13" lengthAdjust="spacing" textLength="205" x="58.5" y="592.9355">ossh install &lt;remoteSSHconfig&gt;</text><line style="stroke:#181818;stroke-width:1.0;" x1="1491.5" x2="1533.5" y1="626.9883" y2="626.9883"/><line style="stroke:#181818;stroke-width:1.0;" x1="1533.5" x2="1533.5" y1="626.9883" y2="639.9883"/><line style="stroke:#181818;stroke-width:1.0;" x1="1492.5" x2="1533.5" y1="639.9883" y2="639.9883"/><polygon fill="#181818" points="1502.5,635.9883,1492.5,639.9883,1502.5,643.9883,1498.5,639.9883" style="stroke:#181818;stroke-width:1.0;"/><text fill="#000000" font-family="sans-serif" font-size="13" lengthAdjust="spacing" textLength="113" x="1498.5" y="622.2461">private.push.oosh</text><polygon fill="#181818" points="971.5,665.2988,961.5,669.2988,971.5,673.2988,967.5,669.2988" style="stroke:#181818;stroke-width:1.0;"/><line style="stroke:#181818;stroke-width:1.0;" x1="965.5" x2="1490.5" y1="669.2988" y2="669.2988"/><text fill="#000000" font-family="sans-serif" font-size="13" lengthAdjust="spacing" textLength="507" x="977.5" y="664.5566">init/oosh mode ssh &lt;remoteSSHconfig&gt; &lt;localSSHconfig&gt; &lt;localOSSH_MODE&gt;</text><path d="M912,684.2988 L974,684.2988 L974,691.6094 L964,701.6094 L912,701.6094 L912,684.2988 " fill="#EEEEEE" style="stroke:#000000;stroke-width:1.5;"/><rect fill="none" height="383.9922" style="stroke:#000000;stroke-width:1.5;" width="1840" x="912" y="684.2988"/><text fill="#000000" font-family="sans-serif" font-size="13" font-weight="bold" lengthAdjust="spacing" textLength="17" x="927" y="697.8672">alt</text><text fill="#000000" font-family="sans-serif" font-size="11" font-weight="bold" lengthAdjust="spacing" textLength="62" x="989" y="696.9336">[mode ssh]</text><polygon fill="#181818" points="1929.5,718.9199,1939.5,722.9199,1929.5,726.9199,1933.5,722.9199" style="stroke:#181818;stroke-width:1.0;"/><line style="stroke:#181818;stroke-width:1.0;" x1="960.5" x2="1935.5" y1="722.9199" y2="722.9199"/><text fill="#000000" font-family="sans-serif" font-size="13" lengthAdjust="spacing" textLength="957" x="967.5" y="718.1777">"$BASH_FILE" -xc "$OOSH_DIR/this call ossh install.continue.local $SSH_CONFIG_FROM_REMOTE $SSH_CONFIG_NAME_USED_FOR_LOCAL $DEV_MODE"</text><polygon fill="#181818" points="2710.5,748.2305,2720.5,752.2305,2710.5,756.2305,2714.5,752.2305" style="stroke:#181818;stroke-width:1.0;"/><line style="stroke:#181818;stroke-width:1.0;" x1="1941.5" x2="2716.5" y1="752.2305" y2="752.2305"/><text fill="#000000" font-family="sans-serif" font-size="13" lengthAdjust="spacing" textLength="757" x="1948.5" y="747.4883">this call ossh install.continue.local $SSH_CONFIG_FROM_REMOTE $SSH_CONFIG_NAME_USED_FOR_LOCAL $DEV_MODE"</text><polygon fill="#181818" points="1502.5,777.541,1492.5,781.541,1502.5,785.541,1498.5,781.541" style="stroke:#181818;stroke-width:1.0;"/><line style="stroke:#181818;stroke-width:1.0;" x1="1496.5" x2="2721.5" y1="781.541" y2="781.541"/><text fill="#000000" font-family="sans-serif" font-size="13" lengthAdjust="spacing" textLength="703" x="1508.5" y="776.7988">ossh install.continue.local $SSH_CONFIG_FROM_REMOTE $SSH_CONFIG_NAME_USED_FOR_LOCAL $DEV_MODE"</text><polygon fill="#181818" points="2710.5,806.8516,2720.5,810.8516,2710.5,814.8516,2714.5,810.8516" style="stroke:#181818;stroke-width:1.0;"/><line style="stroke:#181818;stroke-width:1.0;" x1="1491.5" x2="2716.5" y1="810.8516" y2="810.8516"/><text fill="#000000" font-family="sans-serif" font-size="13" lengthAdjust="spacing" textLength="50" x="1498.5" y="806.1094">return 0</text><polygon fill="#181818" points="1952.5,836.1621,1942.5,840.1621,1952.5,844.1621,1948.5,840.1621" style="stroke:#181818;stroke-width:1.0;"/><line style="stroke:#181818;stroke-width:1.0;" x1="1946.5" x2="2721.5" y1="840.1621" y2="840.1621"/><text fill="#000000" font-family="sans-serif" font-size="13" lengthAdjust="spacing" textLength="50" x="1958.5" y="835.4199">return 0</text><polygon fill="#181818" points="971.5,865.4727,961.5,869.4727,971.5,873.4727,967.5,869.4727" style="stroke:#181818;stroke-width:1.0;"/><line style="stroke:#181818;stroke-width:1.0;" x1="965.5" x2="1940.5" y1="869.4727" y2="869.4727"/><text fill="#000000" font-family="sans-serif" font-size="13" lengthAdjust="spacing" textLength="50" x="977.5" y="864.7305">return 0</text><line style="stroke:#000000;stroke-width:1.0;stroke-dasharray:2.0,2.0;" x1="912" x2="2752" y1="878.4727" y2="878.4727"/><text fill="#000000" font-family="sans-serif" font-size="11" font-weight="bold" lengthAdjust="spacing" textLength="67" x="917" y="889.1074">[mode user]</text><polygon fill="#181818" points="1929.5,909.7383,1939.5,913.7383,1929.5,917.7383,1933.5,913.7383" style="stroke:#181818;stroke-width:1.0;"/><line style="stroke:#181818;stroke-width:1.0;" x1="960.5" x2="1935.5" y1="913.7383" y2="913.7383"/><text fill="#000000" font-family="sans-serif" font-size="13" lengthAdjust="spacing" textLength="957" x="967.5" y="908.9961">"$BASH_FILE" -xc "$OOSH_DIR/this call ossh install.continue.local $SSH_CONFIG_FROM_REMOTE $SSH_CONFIG_NAME_USED_FOR_LOCAL $DEV_MODE"</text><polygon fill="#181818" points="2710.5,939.0488,2720.5,943.0488,2710.5,947.0488,2714.5,943.0488" style="stroke:#181818;stroke-width:1.0;"/><line style="stroke:#181818;stroke-width:1.0;" x1="1941.5" x2="2716.5" y1="943.0488" y2="943.0488"/><text fill="#000000" font-family="sans-serif" font-size="13" lengthAdjust="spacing" textLength="757" x="1948.5" y="938.3066">this call ossh install.continue.local $SSH_CONFIG_FROM_REMOTE $SSH_CONFIG_NAME_USED_FOR_LOCAL $DEV_MODE"</text><polygon fill="#181818" points="1502.5,968.3594,1492.5,972.3594,1502.5,976.3594,1498.5,972.3594" style="stroke:#181818;stroke-width:1.0;"/><line style="stroke:#181818;stroke-width:1.0;" x1="1496.5" x2="2721.5" y1="972.3594" y2="972.3594"/><text fill="#000000" font-family="sans-serif" font-size="13" lengthAdjust="spacing" textLength="703" x="1508.5" y="967.6172">ossh install.continue.local $SSH_CONFIG_FROM_REMOTE $SSH_CONFIG_NAME_USED_FOR_LOCAL $DEV_MODE"</text><polygon fill="#181818" points="2710.5,997.6699,2720.5,1001.6699,2710.5,1005.6699,2714.5,1001.6699" style="stroke:#181818;stroke-width:1.0;"/><line style="stroke:#181818;stroke-width:1.0;" x1="1491.5" x2="2716.5" y1="1001.6699" y2="1001.6699"/><text fill="#000000" font-family="sans-serif" font-size="13" lengthAdjust="spacing" textLength="50" x="1498.5" y="996.9277">return 0</text><polygon fill="#181818" points="1952.5,1026.9805,1942.5,1030.9805,1952.5,1034.9805,1948.5,1030.9805" style="stroke:#181818;stroke-width:1.0;"/><line style="stroke:#181818;stroke-width:1.0;" x1="1946.5" x2="2721.5" y1="1030.9805" y2="1030.9805"/><text fill="#000000" font-family="sans-serif" font-size="13" lengthAdjust="spacing" textLength="50" x="1958.5" y="1026.2383">return 0</text><polygon fill="#181818" points="971.5,1056.291,961.5,1060.291,971.5,1064.291,967.5,1060.291" style="stroke:#181818;stroke-width:1.0;"/><line style="stroke:#181818;stroke-width:1.0;" x1="965.5" x2="1940.5" y1="1060.291" y2="1060.291"/><text fill="#000000" font-family="sans-serif" font-size="13" lengthAdjust="spacing" textLength="50" x="977.5" y="1055.5488">return 0</text><polygon fill="#181818" points="1479.5,1092.6016,1489.5,1096.6016,1479.5,1100.6016,1483.5,1096.6016" style="stroke:#181818;stroke-width:1.0;"/><line style="stroke:#181818;stroke-width:1.0;" x1="960.5" x2="1485.5" y1="1096.6016" y2="1096.6016"/><text fill="#000000" font-family="sans-serif" font-size="13" lengthAdjust="spacing" textLength="50" x="967.5" y="1091.8594">return 0</text><line style="stroke:#181818;stroke-width:1.0;" x1="1491.5" x2="1533.5" y1="1125.9121" y2="1125.9121"/><line style="stroke:#181818;stroke-width:1.0;" x1="1533.5" x2="1533.5" y1="1125.9121" y2="1138.9121"/><line style="stroke:#181818;stroke-width:1.0;" x1="1492.5" x2="1533.5" y1="1138.9121" y2="1138.9121"/><polygon fill="#181818" points="1502.5,1134.9121,1492.5,1138.9121,1502.5,1142.9121,1498.5,1138.9121" style="stroke:#181818;stroke-width:1.0;"/><text fill="#000000" font-family="sans-serif" font-size="13" lengthAdjust="spacing" textLength="279" x="1498.5" y="1121.1699">ossh.install.finish.local &lt;remoteSSHconfig&gt;</text><path d="M20,1160.9121 L285,1160.9121 L285,1168.2227 L275,1178.2227 L20,1178.2227 L20,1160.9121 " fill="#EEEEEE" style="stroke:#000000;stroke-width:1.5;"/><rect fill="none" height="240.7949" style="stroke:#000000;stroke-width:1.5;" width="3050.5" x="20" y="1160.9121"/><text fill="#000000" font-family="sans-serif" font-size="13" font-weight="bold" lengthAdjust="spacing" textLength="220" x="35" y="1174.4805">Reconfiguration and Exit of oosh</text><polygon fill="#181818" points="3018.5,1195.5332,3028.5,1199.5332,3018.5,1203.5332,3022.5,1199.5332" style="stroke:#181818;stroke-width:1.0;"/><line style="stroke:#181818;stroke-width:1.0;" x1="51.5" x2="3024.5" y1="1199.5332" y2="1199.5332"/><text fill="#000000" font-family="sans-serif" font-size="13" lengthAdjust="spacing" textLength="270" x="58.5" y="1194.791">exit $ERROR_CODE_RECONFIG(defualt is 7)</text><polygon fill="#181818" points="2733.5,1224.8438,2723.5,1228.8438,2733.5,1232.8438,2729.5,1228.8438" style="stroke:#181818;stroke-width:1.0;"/><line style="stroke:#181818;stroke-width:1.0;" x1="2727.5" x2="3029.5" y1="1228.8438" y2="1228.8438"/><text fill="#000000" font-family="sans-serif" font-size="13" lengthAdjust="spacing" textLength="69" x="2739.5" y="1224.1016">this.restart</text><path d="M1908,1243.8438 L1970,1243.8438 L1970,1251.1543 L1960,1261.1543 L1908,1261.1543 L1908,1243.8438 " fill="#EEEEEE" style="stroke:#000000;stroke-width:1.5;"/><rect fill="none" height="150.8633" style="stroke:#000000;stroke-width:1.5;" width="1152.5" x="1908" y="1243.8438"/><text fill="#000000" font-family="sans-serif" font-size="13" font-weight="bold" lengthAdjust="spacing" textLength="17" x="1923" y="1257.4121">alt</text><text fill="#000000" font-family="sans-serif" font-size="11" font-weight="bold" lengthAdjust="spacing" textLength="272" x="1985" y="1256.4785">[$RETURN_VALUE = $ERROR_CODE_RECONFIG]</text><line style="stroke:#181818;stroke-width:1.0;" x1="2722.5" x2="2764.5" y1="1297.7754" y2="1297.7754"/><line style="stroke:#181818;stroke-width:1.0;" x1="2764.5" x2="2764.5" y1="1297.7754" y2="1310.7754"/><line style="stroke:#181818;stroke-width:1.0;" x1="2723.5" x2="2764.5" y1="1310.7754" y2="1310.7754"/><polygon fill="#181818" points="2733.5,1306.7754,2723.5,1310.7754,2733.5,1314.7754,2729.5,1310.7754" style="stroke:#181818;stroke-width:1.0;"/><text fill="#000000" font-family="sans-serif" font-size="13" lengthAdjust="spacing" textLength="107" x="2729.5" y="1277.7227">this.restart again</text><text fill="#000000" font-family="sans-serif" font-size="13" lengthAdjust="spacing" textLength="154" x="2733.5" y="1293.0332"># exited back into this 7</text><polygon fill="#181818" points="1952.5,1351.3965,1942.5,1355.3965,1952.5,1359.3965,1948.5,1355.3965" style="stroke:#181818;stroke-width:1.0;"/><line style="stroke:#181818;stroke-width:1.0;" x1="1946.5" x2="2721.5" y1="1355.3965" y2="1355.3965"/><text fill="#000000" font-family="sans-serif" font-size="13" lengthAdjust="spacing" textLength="92" x="1958.5" y="1335.3438">source .bashrc</text><text fill="#000000" font-family="sans-serif" font-size="13" lengthAdjust="spacing" textLength="288" x="1962.5" y="1350.6543">[oosh sshConfig] has started reconfigured &gt; |</text><line style="stroke:#000000;stroke-width:1.0;stroke-dasharray:2.0,2.0;" x1="1908" x2="3060.5" y1="1364.3965" y2="1364.3965"/><polygon fill="#181818" points="3018.5,1382.707,3028.5,1386.707,3018.5,1390.707,3022.5,1386.707" style="stroke:#181818;stroke-width:1.0;"/><line style="stroke:#181818;stroke-width:1.0;" x1="2722.5" x2="3024.5" y1="1386.707" y2="1386.707"/><text fill="#000000" font-family="sans-serif" font-size="13" lengthAdjust="spacing" textLength="284" x="2729.5" y="1381.9648">finally exiting oosh (in this.start case restart)</text><path d="M20,1415.707 L205,1415.707 L205,1423.0176 L195,1433.0176 L20,1433.0176 L20,1415.707 " fill="#EEEEEE" style="stroke:#000000;stroke-width:1.5;"/><rect fill="none" height="46.6211" style="stroke:#000000;stroke-width:1.5;" width="1138" x="20" y="1415.707"/><text fill="#000000" font-family="sans-serif" font-size="13" font-weight="bold" lengthAdjust="spacing" textLength="140" x="35" y="1429.2754">Local De-Installation</text><polygon fill="#181818" points="1066.5,1450.3281,1076.5,1454.3281,1066.5,1458.3281,1070.5,1454.3281" style="stroke:#181818;stroke-width:1.0;"/><line style="stroke:#181818;stroke-width:1.0;" x1="51.5" x2="1072.5" y1="1454.3281" y2="1454.3281"/><text fill="#000000" font-family="sans-serif" font-size="13" lengthAdjust="spacing" textLength="117" x="58.5" y="1449.5859">init/deinstall.oosh</text><!--MD5=[af8deb9e50d86530988017a6e0161be1]
@startuml
actor Actor as a
participant sh
participant "init/oosh" as oosh 
participant "init/deinstall.oosh" as deinstall.oosh 
participant ossh
participant oo
participant bash
participant this

group Installation from GitHub
    alt curl
    else wget
        a -> sh: env -i sh -c "$(wget -O- https://raw.githubusercontent.com/Cerulean-Circle-GmbH/once.sh/main/init/oosh)"
    else fetch
    end
end
group Local Installation
    a -> oosh: init/oosh
    oosh -> sh: #!/bin/sh ### shebang
    sh -> bash: bash this localInstall
    bash -> this: this localInstall
    this -> bash: #!/usr/bin/env bash ### shebang
    this -> oo: oo state # initializes the state machine
    this -> user: user get home \n # hack to make sure the pm is set
    this -> bash: starts new bash
    bash -> bash: source .bashrc \n [oosh sshConfig] has started > |
end
group Remote Installation

    a -> ossh: ossh install <remoteSSHconfig> 

    ossh -> ossh: private.push.oosh
    ossh -> oosh: init/oosh mode ssh <remoteSSHconfig> <localSSHconfig> <localOSSH_MODE>
    alt mode ssh
        oosh -> bash: "$BASH_FILE" -xc "$OOSH_DIR/this call ossh install.continue.local $SSH_CONFIG_FROM_REMOTE $SSH_CONFIG_NAME_USED_FOR_LOCAL $DEV_MODE"
        bash -> this: this call ossh install.continue.local $SSH_CONFIG_FROM_REMOTE $SSH_CONFIG_NAME_USED_FOR_LOCAL $DEV_MODE"
        this -> ossh: ossh install.continue.local $SSH_CONFIG_FROM_REMOTE $SSH_CONFIG_NAME_USED_FOR_LOCAL $DEV_MODE"
        ossh -> this: return 0
        this -> bash: return 0
        bash -> oosh: return 0
    else mode user
        oosh -> bash: "$BASH_FILE" -xc "$OOSH_DIR/this call ossh install.continue.local $SSH_CONFIG_FROM_REMOTE $SSH_CONFIG_NAME_USED_FOR_LOCAL $DEV_MODE"
        bash -> this: this call ossh install.continue.local $SSH_CONFIG_FROM_REMOTE $SSH_CONFIG_NAME_USED_FOR_LOCAL $DEV_MODE"
        this -> ossh: ossh install.continue.local $SSH_CONFIG_FROM_REMOTE $SSH_CONFIG_NAME_USED_FOR_LOCAL $DEV_MODE"
        ossh -> this: return 0
        this -> bash: return 0
        bash -> oosh: return 0
    end
    oosh -> ossh: return 0
    ossh -> ossh: ossh.install.finish.local <remoteSSHconfig>
end
group Reconfiguration and Exit of oosh
    a -> exit: exit $ERROR_CODE_RECONFIG(defualt is 7)
    exit -> this: this.restart
    alt $RETURN_VALUE = $ERROR_CODE_RECONFIG
        this -> this: this.restart again \n # exited back into this 7
        this -> bash: source .bashrc \n [oosh sshConfig] has started reconfigured > |
    else
        this -> exit: finally exiting oosh (in this.start case restart)
    end
end
group Local De-Installation
    a -> deinstall.oosh: init/deinstall.oosh
end
@enduml

PlantUML version 1.2022.5(Sat Apr 30 12:55:52 CEST 2022)
(GPL source distribution)
Java Runtime: Java(TM) SE Runtime Environment
JVM: Java HotSpot(TM) 64-Bit Server VM
Default Encoding: UTF-8
Language: en
Country: GB
--></g></svg>